<?xml version="1.0" encoding="utf-8"?>
<!-- Generator: Adobe Illustrator 24.3.0, SVG Export Plug-In . SVG Version: 6.00 Build 0)  -->
<svg version="1.0" id="katman_1" xmlns="http://www.w3.org/2000/svg" xmlns:xlink="http://www.w3.org/1999/xlink" x="0px" y="0px"
	 viewBox="0 0 841.89 595.28" style="enable-background:new 0 0 841.89 595.28;" xml:space="preserve">
<style type="text/css">
	.st0{clip-path:url(#SVGID_2_);}
	.st1{fill-opacity:0;}
	.st2{fill:#001F60;stroke:#000000;stroke-width:0.1628;stroke-miterlimit:10;}
</style>
<g>
	<defs>
		<rect id="SVGID_1_" x="103.17" y="111.94" width="636.16" height="371.26"/>
	</defs>
	<clipPath id="SVGID_2_">
		<use xlink:href="#SVGID_1_"  style="overflow:visible;"/>
	</clipPath>
	<g class="st0">
		<rect x="103.17" y="111.94" class="st1" width="636.16" height="371.26"/>
		<path class="st2" d="M189.22,143.69c11.69,0,21.78,1.56,30.26,4.65c8.48,3.1,15.48,7.15,20.98,12.16
			c5.5,5.01,9.51,10.55,12.03,16.62c2.52,6.08,3.79,12.1,3.79,18.06c0,5.49-0.92,10.31-2.75,14.48c-1.84,4.17-4.25,7.68-7.23,10.54
			c-2.98,2.86-6.41,5.07-10.31,6.62c-3.9,1.55-7.8,2.32-11.69,2.32c-9.63,0-16.85-3.51-21.67-10.54
			c-4.82-7.03-7.23-15.19-7.23-24.49c9.4,0.24,15.88-1.84,19.43-6.26c3.55-4.4,4.86-9.35,3.96-14.84
			c-0.92-5.48-3.84-10.55-8.77-15.19c-4.93-4.65-11.3-6.97-19.09-6.97c-6.42,0-12.09,1.67-17.02,5.01c-4.93,3.34-9,7.69-12.21,13.05
			c-3.21,5.36-5.62,11.56-7.22,18.59c-1.61,7.03-2.41,14.36-2.41,21.99c0,8.58,1.08,17.04,3.27,25.38
			c2.17,8.35,5.44,15.73,9.8,22.16c4.35,6.44,9.98,11.68,16.86,15.73c6.87,4.05,14.9,6.08,24.07,6.08c10.54,0,20.4-3.16,29.57-9.48
			c9.17-6.31,15.7-15.67,19.6-28.06h3.44c-0.92,9.54-3.61,18.18-8.08,25.92c-4.47,7.75-9.97,14.36-16.51,19.84
			c-6.53,5.49-13.75,9.77-21.67,12.87c-7.91,3.09-15.88,4.65-23.9,4.65c-11.24,0-21.61-2.21-31.13-6.62
			c-9.52-4.4-17.66-10.36-24.42-17.87c-6.77-7.5-12.04-16.26-15.82-26.27c-3.79-10.01-5.67-20.73-5.67-32.18
			c0-9.77,1.54-19.3,4.64-28.6c3.09-9.3,7.85-17.64,14.27-25.03c6.41-7.38,14.5-13.28,24.24-17.69
			C164.4,145.9,175.92,143.69,189.22,143.69z"/>
		<path class="st2" d="M263.33,300.97v-2.39h0.81c3.08,0,5.53-4.34,7.35-13.04c1.82-8.69,2.72-20.69,2.72-36v-55.02
			c0-15.31-0.91-27.31-2.72-36.01c-1.82-8.69-4.27-13.04-7.35-13.04h-0.81v-2.39h43.56v106.45c0,15.31,0.9,27.31,2.72,36
			c1.82,8.7,4.26,13.04,7.35,13.04h0.82v2.39H263.33L263.33,300.97z M324.85,235.13c0-8.11,1.22-16.01,3.67-23.73
			c2.45-7.71,6.21-14.63,11.3-20.76c5.08-6.13,11.48-11.02,19.2-14.68c7.72-3.66,16.84-5.49,27.36-5.49
			c12.52,0,22.73,2.17,30.63,6.53c7.9,4.35,13.79,9.69,17.69,16.01c3.9,6.33,5.9,13,5.99,20.02c0.09,7.02-1.41,13.11-4.5,18.24
			c-3.26,5.54-7.81,9.14-13.61,10.82c-5.81,1.69-11.94,2.87-18.38,3.56c-6.45,0.69-12.71,1.63-18.79,2.82
			c-6.08,1.19-11.03,4.06-14.84,8.6c-1.09,1.58-1.86,3.26-2.32,5.05c-0.45,1.78-0.23,3.26,0.68,4.45
			c3.27,5.15,7.49,9.15,12.66,12.02c5.17,2.87,11.21,4.3,18.11,4.3c3.81,0,7.71-0.74,11.71-2.22c3.99-1.48,7.76-3.56,11.3-6.23
			c3.54-2.67,6.71-5.93,9.53-9.79c2.82-3.85,4.94-8.25,6.4-13.2h2.72c-0.73,7.91-2.85,15.08-6.4,21.5
			c-3.54,6.42-7.9,11.91-13.07,16.47c-5.17,4.55-10.89,8.11-17.15,10.68c-6.26,2.57-12.57,3.85-18.92,3.85
			c-8.89,0-17.11-1.83-24.64-5.49c-7.53-3.66-13.98-8.6-19.33-14.83c-5.36-6.23-9.53-13.49-12.53-21.8
			C326.35,253.52,324.85,244.62,324.85,235.13z M365.15,260.04c0.73-3.96,2.32-7.27,4.77-9.93c2.45-2.67,5.31-5.09,8.57-7.27
			c3.27-2.17,6.76-4.35,10.48-6.53c3.72-2.17,7.17-4.75,10.35-7.71c3.17-2.97,5.76-6.57,7.76-10.82c2-4.25,3-9.54,3-15.87
			c0-8.3-2.28-14.63-6.8-18.98c-4.54-4.35-9.71-6.53-15.52-6.53c-5.63,0-10.44,1.58-14.43,4.74c-3.99,3.17-7.17,7.17-9.53,12.02
			c-2.36,4.85-4.08,10.13-5.17,15.86c-1.08,5.74-1.63,11.08-1.63,16.02c0,6.13,0.68,12.21,2.04,18.24
			C360.38,249.32,362.43,254.9,365.15,260.04z M521.14,300.97v-21.95c-1.82,6.13-4.85,11.12-9.12,14.98
			c-4.27,3.85-9.12,6.58-14.56,8.16c-5.44,1.58-11.12,2.07-17.02,1.48c-5.9-0.6-11.26-2.22-16.06-4.89
			c-4.81-2.67-8.8-6.33-11.98-10.98c-3.18-4.64-4.76-10.23-4.76-16.76c0-7.51,1.82-13.15,5.44-16.9c3.63-3.76,8.17-6.62,13.62-8.6
			c5.44-1.98,11.33-3.46,17.69-4.45c6.35-0.99,12.25-2.22,17.69-3.71c5.44-1.48,9.98-3.76,13.62-6.82
			c3.63-3.07,5.44-7.66,5.44-13.79c0-12.46-1.68-22.44-5.03-29.96c-3.36-7.51-9.12-11.27-17.29-11.27c-5.62,0-10.26,1.63-13.89,4.89
			c-3.63,3.26-5.76,6.87-6.4,10.82c-0.64,3.96,0.36,7.52,2.99,10.68c2.63,3.16,7.3,4.64,14.03,4.45c0,6.72-1.69,12.56-5.04,17.5
			c-3.36,4.94-8.49,7.41-15.38,7.41c-2.72,0-5.45-0.54-8.17-1.63c-2.72-1.08-5.17-2.62-7.35-4.6c-2.18-1.98-3.9-4.49-5.17-7.57
			c-1.28-3.06-1.9-6.48-1.9-10.23c0-4.35,0.9-8.7,2.72-13.05c1.82-4.35,4.63-8.3,8.44-11.86c3.81-3.56,8.71-6.43,14.7-8.6
			c5.99-2.17,13.16-3.26,21.51-3.26c18.15,0,31.63,4.4,40.43,13.2c8.8,8.8,13.3,23.09,13.47,42.86v10.68
			c0,18.98,0.91,33.86,2.72,44.64c1.82,10.78,4.26,16.16,7.35,16.16h0.82v2.97h-43.56V300.97z M521.14,233.05
			c-3.81,4.75-8.03,8.21-12.66,10.38c-4.63,2.18-8.94,4.3-12.93,6.37c-4,2.08-7.35,4.5-10.07,7.27c-2.72,2.78-4.08,7.12-4.08,13.05
			c0,2.97,0.4,5.89,1.23,8.75c0.82,2.87,1.99,5.49,3.54,7.86c1.54,2.37,3.31,4.26,5.31,5.64c2,1.38,4.17,2.07,6.53,2.07
			c2.72,0,5.45-0.94,8.17-2.82c2.72-1.88,5.17-4.64,7.35-8.3c2.17-3.66,3.99-8.3,5.44-13.94c1.45-5.63,2.17-12.2,2.17-19.72
			L521.14,233.05L521.14,233.05z M616.16,173.44v32.33c2.54-6.53,5.44-12.01,8.71-16.46c3.27-4.45,6.67-8.05,10.21-10.82
			c3.54-2.77,7.17-4.8,10.89-6.08c3.72-1.28,7.31-1.93,10.76-1.93c7.8,0,13.93,2.33,18.37,6.97c4.45,4.65,6.67,11.42,6.67,20.31
			v41.22c0,18.99,0.91,33.57,2.73,43.75c1.82,10.19,4.26,15.27,7.35,15.27h0.54v2.97H638.2v-2.96h0.81c3.08,0,5.53-5.09,7.35-15.27
			c1.82-10.18,2.72-24.76,2.72-43.75v-43.6c0-3.56-0.59-6.18-1.77-7.86c-1.18-1.67-2.77-2.52-4.76-2.52c-2.36,0-5.08,1.24-8.17,3.71
			c-3.09,2.47-5.99,5.98-8.71,10.53c-2.72,4.55-4.99,10.04-6.81,16.47c-1.82,6.43-2.72,13.59-2.72,21.5
			c0,18.98,0.9,33.86,2.72,44.64c1.81,10.78,4.26,16.17,7.35,16.17h0.54v2.97h-54.18v-2.97h0.81c3.08,0,5.53-5.44,7.35-16.31
			c1.81-10.87,2.72-25.7,2.72-44.49c0-18.98-0.91-33.86-2.72-44.64c-1.82-10.77-4.27-16.16-7.35-16.16h-0.81v-2.97H616.16z"/>
		<path class="st2" d="M738.77,156.48c-31.24,0-40.03-9.88-40.03-44.98c0,35.11-8.79,44.98-40.02,44.98
			c31.24,0,40.02,9.88,40.02,44.98C698.75,166.35,707.54,156.48,738.77,156.48z"/>
		<path class="st2" d="M276.54,322.23c11.69,0,21.78,1.56,30.26,4.65c8.48,3.1,15.48,7.15,20.98,12.16
			c5.5,5.01,9.51,10.55,12.03,16.62c2.52,6.08,3.79,12.1,3.79,18.06c0,5.49-0.92,10.31-2.75,14.48c-1.84,4.17-4.25,7.68-7.23,10.54
			c-2.98,2.86-6.41,5.07-10.31,6.62c-3.9,1.55-7.8,2.32-11.69,2.32c-9.63,0-16.85-3.51-21.67-10.54
			c-4.82-7.03-7.22-15.19-7.22-24.49c9.4,0.24,15.88-1.84,19.43-6.26c3.55-4.4,4.86-9.35,3.96-14.84
			c-0.92-5.48-3.84-10.55-8.77-15.19c-4.93-4.65-11.3-6.97-19.09-6.97c-6.42,0-12.09,1.67-17.02,5.01c-4.93,3.34-9,7.69-12.21,13.05
			c-3.21,5.36-5.62,11.56-7.22,18.59c-1.61,7.03-2.41,14.36-2.41,21.99c0,8.58,1.08,17.04,3.27,25.38
			c2.17,8.35,5.44,15.73,9.8,22.16c4.35,6.44,9.98,11.68,16.86,15.73c6.87,4.05,14.9,6.07,24.07,6.07c10.54,0,20.4-3.16,29.57-9.47
			c9.17-6.31,15.7-15.67,19.6-28.06h3.44c-0.92,9.54-3.61,18.18-8.08,25.92c-4.47,7.75-9.97,14.36-16.51,19.84
			c-6.53,5.49-13.75,9.77-21.67,12.87c-7.91,3.09-15.88,4.65-23.9,4.65c-11.24,0-21.61-2.21-31.13-6.62
			c-9.52-4.4-17.66-10.36-24.42-17.87c-6.77-7.5-12.04-16.26-15.82-26.27c-3.79-10.01-5.67-20.73-5.67-32.18
			c0-9.77,1.54-19.3,4.64-28.6c3.09-9.3,7.85-17.64,14.27-25.03c6.41-7.38,14.5-13.28,24.24-17.69
			C251.72,324.43,263.24,322.23,276.54,322.23z"/>
		<path class="st2" d="M432.05,480.5v-29.38c-1.83,4.04-3.89,8.02-6.18,11.96c-2.29,3.94-4.99,7.39-8.1,10.37
			c-3.12,2.98-6.78,5.37-10.98,7.2c-4.22,1.82-9.16,2.74-14.84,2.74c-4.03,0-7.82-0.57-11.4-1.73c-3.57-1.15-6.59-3.12-9.06-5.9
			c-2.47-2.78-4.44-6.43-5.9-10.95c-1.47-4.51-2.2-10.13-2.2-16.85v-29.39c0-18.44-0.92-32.89-2.75-43.36
			c-1.83-10.47-4.3-15.7-7.41-15.7h-0.83v-2.88h43.67v93.62c0,1.35,0.09,3.27,0.27,5.76c0.18,2.5,0.64,4.95,1.38,7.35
			c0.73,2.4,1.78,4.47,3.16,6.19c1.38,1.73,3.16,2.59,5.36,2.59c5.86,0,10.57-2.78,14.14-8.35c3.57-5.57,6.27-12.53,8.11-20.89
			c1.83-8.36,2.88-17.38,3.16-27.08c0.27-9.69,0-18.73-0.83-27.08c-0.82-8.35-2.01-15.31-3.57-20.89c-1.56-5.57-3.35-8.36-5.36-8.36
			h-0.82v-2.88h43.94v61.93c0,18.25,0.91,32.65,2.75,43.21c1.83,10.57,4.3,15.85,7.41,15.85H476v2.88H432.05z"/>
		<path class="st2" d="M557.01,438.15V370.9c0-4.03-0.65-6.43-1.92-7.2c-1.28-0.76-4.3-1.15-9.06-1.15v-5.93
			c3.11,0,6.77-0.81,10.99-2.45c4.21-1.63,8.33-3.75,12.36-6.34c4.02-2.59,7.64-5.66,10.85-9.22c3.2-3.55,5.17-7.15,5.9-10.8h3.84
			v28.81h14.01v5.93h-14.01v70.7c0,12.29,0.51,22.23,1.52,29.82c1,7.59,3.06,11.37,6.18,11.37c1.83,0,3.93-1.25,6.31-3.75l1.1,2.59
			c-0.91,1.73-3.43,3.84-7.55,6.34c-4.12,2.49-8.75,3.74-13.87,3.74c-9.89,0-16.8-3.46-20.73-10.37
			C558.97,466.1,557.01,454.47,557.01,438.15z"/>
		<path class="st2" d="M484.46,480v-2.39h0.81c3.06,0,5.48-4.34,7.28-13.03c1.8-8.68,2.7-20.68,2.7-35.99v-55
			c0-15.3-0.9-27.3-2.7-35.99c-1.8-8.68-4.22-13.03-7.28-13.03h-0.81v-2.39h43.15V428.6c0,15.3,0.9,27.3,2.7,35.99
			c1.79,8.7,4.22,13.03,7.28,13.03h0.81v2.39L484.46,480L484.46,480z"/>
	</g>
</g>
</svg>
