<?xml version="1.0" encoding="utf-8"?>
<!-- Generator: Adobe Illustrator 17.0.0, SVG Export Plug-In . SVG Version: 6.00 Build 0)  -->
<!DOCTYPE svg PUBLIC "-//W3C//DTD SVG 1.1//EN" "http://www.w3.org/Graphics/SVG/1.1/DTD/svg11.dtd">
<svg version="1.1" id="Layer_1" xmlns="http://www.w3.org/2000/svg" xmlns:xlink="http://www.w3.org/1999/xlink" x="0px" y="0px"
	 width="512px" height="69px" viewBox="1244 1669.5 512 69" enable-background="new 1244 1669.5 512 69" xml:space="preserve">
<path fill="#EF3829" d="M1626.548,1737.581l58.744-68.162h28.616l-58.743,68.162H1626.548L1626.548,1737.581z M1666.629,1737.581
	l58.755-68.162H1754l-58.746,68.162H1666.629L1666.629,1737.581z"/>
<path fill="#4C4C4E" d="M1248.554,1714.118c-1.411,0-2.554-1.162-2.554-2.595v-23.406c0-1.434,1.143-2.596,2.554-2.596l49.71,0.125
	c14.008,0,25.363,6.358,25.363,14.2c0,7.844-11.355,14.2-25.363,14.2L1248.554,1714.118L1248.554,1714.118z M1291.155,1707.492
	c7.181,0,13.001-3.429,13.001-7.658c0-4.23-5.82-7.659-13.001-7.659l-25.48-0.066c-0.724,0-1.309,0.626-1.309,1.4v12.623
	c0,0.773,0.585,1.4,1.309,1.4L1291.155,1707.492L1291.155,1707.492z"/>
<path fill="#565759" d="M1248.67,1713.964c-1.405,0-2.541-1.153-2.541-2.573v-23.218c0-1.422,1.137-2.574,2.541-2.574l49.466,0.123
	c13.94,0,25.24,6.306,25.24,14.086s-11.3,14.086-25.24,14.086C1298.136,1713.893,1248.67,1713.964,1248.67,1713.964z
	 M1291.161,1707.552c7.244,0.001,13.118-3.481,13.119-7.78c0.001-4.298-5.871-7.783-13.117-7.785l-25.71-0.072
	c-0.729,0-1.321,0.636-1.321,1.421l-0.004,12.828c0,0.786,0.592,1.422,1.322,1.422L1291.161,1707.552z"/>
<path fill="#606163" d="M1248.785,1713.811c-1.397,0-2.53-1.143-2.53-2.553v-23.029c-0.007-1.403,1.125-2.546,2.527-2.553
	c0.001,0,0.002,0,0.003,0l49.223,0.122c13.871,0,25.117,6.255,25.117,13.971c0,7.716-11.246,13.97-25.117,13.97
	C1298.008,1713.739,1248.785,1713.811,1248.785,1713.811z M1291.166,1707.613c7.31,0.003,13.237-3.534,13.239-7.902
	c0.003-4.366-5.922-7.908-13.232-7.911l-25.938-0.08c-0.737,0-1.333,0.646-1.333,1.444l-0.006,13.033
	c0,0.799,0.597,1.445,1.333,1.445L1291.166,1707.613L1291.166,1707.613z"/>
<path fill="#696A6C" d="M1248.901,1713.657c-1.394-0.004-2.521-1.138-2.517-2.532c0,0,0,0,0,0v-22.84
	c0-1.398,1.126-2.532,2.517-2.532l48.98,0.122c13.801,0,24.991,6.204,24.991,13.857c0,7.652-11.19,13.856-24.991,13.856
	L1248.901,1713.657L1248.901,1713.657z M1291.173,1707.673c7.375,0.004,13.354-3.588,13.357-8.023
	c0.003-4.435-5.973-8.034-13.346-8.039l-26.168-0.085c-0.743,0-1.346,0.657-1.346,1.467l-0.009,13.237
	c0,0.81,0.602,1.468,1.344,1.468L1291.173,1707.673L1291.173,1707.673z"/>
<path fill="#707274" d="M1249.016,1713.503c-1.385-0.001-2.507-1.125-2.506-2.511c0,0,0,0,0,0v-22.65
	c0-1.387,1.121-2.512,2.506-2.512l48.736,0.121c13.734,0,24.868,6.153,24.868,13.741c0,7.589-11.134,13.743-24.868,13.743
	L1249.016,1713.503z M1291.179,1707.732c7.438,0.006,13.471-3.641,13.476-8.145c0.003-4.503-6.024-8.158-13.463-8.165l-26.398-0.091
	c-0.749,0-1.358,0.667-1.358,1.49l-0.011,13.442c0,0.823,0.607,1.49,1.356,1.491L1291.179,1707.732L1291.179,1707.732z"/>
<path fill="#797A7D" d="M1249.13,1713.349c-1.375,0.001-2.491-1.114-2.492-2.489v-22.462c0-1.375,1.115-2.489,2.489-2.489
	c0.001,0,0.002,0,0.002,0l48.495,0.118c13.665,0,24.742,6.102,24.742,13.627c0,7.526-11.077,13.627-24.742,13.627
	C1297.625,1713.281,1249.13,1713.349,1249.13,1713.349z M1291.185,1707.793c7.503,0.006,13.589-3.694,13.594-8.266
	c0.005-4.572-6.074-8.284-13.579-8.292l-26.627-0.098c-0.756-0.001-1.37,0.676-1.37,1.513l-0.014,13.645
	c0,0.837,0.612,1.514,1.368,1.515L1291.185,1707.793L1291.185,1707.793z"/>
<path fill="#818385" d="M1249.247,1713.196c-1.366,0.004-2.477-1.101-2.48-2.468c0,0,0-0.001,0-0.001v-22.272
	c0-1.365,1.11-2.47,2.48-2.47l48.25,0.119c13.597,0,24.619,6.049,24.619,13.512s-11.022,13.511-24.619,13.511L1249.247,1713.196
	L1249.247,1713.196z M1291.19,1707.853c7.568,0.008,13.707-3.746,13.714-8.388c0.005-4.641-6.125-8.409-13.693-8.418l-26.857-0.104
	c-0.763-0.001-1.382,0.686-1.383,1.534l-0.017,13.851c-0.001,0.848,0.616,1.537,1.378,1.538L1291.19,1707.853z"/>
<path fill="#898B8E" d="M1249.362,1713.042c-1.357,0.005-2.461-1.091-2.466-2.448c0,0,0,0,0,0v-22.083
	c0-1.353,1.104-2.449,2.466-2.449l48.007,0.118c13.529,0,24.496,5.998,24.496,13.397c0,7.399-10.966,13.396-24.496,13.396
	C1297.369,1712.974,1249.362,1713.042,1249.362,1713.042z M1291.197,1707.913c7.633,0.01,13.825-3.799,13.832-8.509
	c0.006-4.709-6.176-8.534-13.809-8.545l-27.087-0.11c-0.77,0-1.393,0.696-1.394,1.557l-0.019,14.056
	c-0.001,0.86,0.621,1.558,1.391,1.56L1291.197,1707.913L1291.197,1707.913z"/>
<path fill="#919396" d="M1249.477,1712.888c-1.348,0.008-2.447-1.079-2.455-2.427c0,0,0,0,0,0v-21.895
	c0-1.34,1.099-2.427,2.455-2.427l47.765,0.117c13.459,0,24.371,5.946,24.371,13.282c0,7.337-10.912,13.283-24.371,13.283
	L1249.477,1712.888L1249.477,1712.888z M1291.202,1707.972c7.698,0.011,13.943-3.852,13.951-8.63
	c0.008-4.778-6.227-8.66-13.924-8.672l-27.316-0.117c-0.775-0.001-1.405,0.706-1.406,1.58l-0.022,14.26
	c-0.001,0.874,0.626,1.582,1.402,1.584L1291.202,1707.972L1291.202,1707.972z"/>
<path fill="#999B9E" d="M1249.593,1712.735c-1.349,0-2.442-1.077-2.442-2.407v-21.704c0-1.33,1.094-2.407,2.442-2.407l47.521,0.116
	c13.391,0,24.247,5.895,24.247,13.167c0,7.273-10.856,13.167-24.247,13.167L1249.593,1712.735L1249.593,1712.735z
	 M1291.208,1708.033c7.762,0.013,14.062-3.906,14.069-8.753c0.009-4.845-6.278-8.785-14.04-8.797l-27.545-0.123
	c-0.781-0.001-1.417,0.718-1.419,1.603l-0.024,14.464c-0.001,0.885,0.631,1.605,1.412,1.605L1291.208,1708.033L1291.208,1708.033z"
	/>
<path fill="#A2A4A6" d="M1249.708,1712.581c-1.342,0-2.431-1.068-2.431-2.385v-21.516c0-1.317,1.088-2.386,2.431-2.386l47.277,0.114
	c13.322,0,24.124,5.846,24.124,13.054s-10.801,13.053-24.124,13.053L1249.708,1712.581L1249.708,1712.581z M1291.214,1708.093
	c7.827,0.014,14.178-3.958,14.188-8.873c0.009-4.915-6.33-8.91-14.157-8.924l-27.774-0.128c-0.789-0.003-1.43,0.725-1.431,1.623
	l-0.027,14.67c-0.001,0.898,0.636,1.627,1.424,1.628L1291.214,1708.093L1291.214,1708.093z"/>
<path fill="#AAACAF" d="M1249.824,1712.427c-1.336,0-2.418-1.059-2.418-2.365v-21.327c0-1.306,1.082-2.365,2.418-2.365l47.034,0.114
	c13.254,0,23.999,5.792,23.999,12.939c0,7.145-10.745,12.938-23.999,12.938L1249.824,1712.427L1249.824,1712.427z M1291.22,1708.153
	c7.892,0.017,14.298-4.011,14.308-8.995c0.009-4.982-6.38-9.035-14.271-9.051l-28.005-0.135c-0.795-0.001-1.442,0.737-1.443,1.647
	l-0.029,14.874c-0.003,0.909,0.641,1.65,1.436,1.651L1291.22,1708.153L1291.22,1708.153z"/>
<path fill="#B3B5B8" d="M1249.94,1712.274c-1.33,0-2.405-1.049-2.405-2.344v-21.137c0-1.295,1.076-2.343,2.405-2.343l46.791,0.112
	c13.185,0,23.875,5.742,23.875,12.823c0,7.083-10.69,12.824-23.875,12.824L1249.94,1712.274L1249.94,1712.274z M1291.226,1708.214
	c7.957,0.018,14.415-4.065,14.426-9.117c0.01-5.052-6.431-9.161-14.386-9.177l-28.233-0.141c-0.801-0.003-1.454,0.745-1.455,1.669
	l-0.032,15.079c-0.003,0.922,0.646,1.673,1.447,1.674L1291.226,1708.214z"/>
<path fill="#BBBDC0" d="M1250.054,1712.12c-1.321,0-2.393-1.04-2.393-2.323v-20.949c0-1.283,1.072-2.323,2.393-2.323l46.549,0.112
	c13.117,0,23.75,5.691,23.75,12.709c0,7.019-10.634,12.709-23.75,12.709L1250.054,1712.12L1250.054,1712.12z M1291.232,1708.273
	c8.02,0.019,14.533-4.117,14.544-9.238c0.011-5.121-6.481-9.286-14.502-9.304l-28.463-0.149c-0.808-0.001-1.464,0.757-1.467,1.693
	l-0.034,15.282c-0.003,0.936,0.65,1.697,1.458,1.698L1291.232,1708.273L1291.232,1708.273z"/>
<path fill="#4C4C4E" d="M1428.977,1714.118c-1.411,0-2.555-1.162-2.555-2.595v-23.406c0-1.434,1.144-2.596,2.555-2.596l49.709,0.125
	c14.008,0,25.363,6.358,25.363,14.2c0,7.844-11.355,14.2-25.363,14.2L1428.977,1714.118L1428.977,1714.118z M1471.579,1707.492
	c7.179,0,13-3.429,13-7.658c0-4.23-5.82-7.659-13-7.659l-25.481-0.066c-0.724,0-1.309,0.626-1.309,1.4v12.623
	c0,0.773,0.586,1.4,1.309,1.4L1471.579,1707.492L1471.579,1707.492z"/>
<path fill="#565759" d="M1429.092,1713.964c-1.405,0-2.542-1.153-2.542-2.573v-23.218c0-1.422,1.138-2.574,2.542-2.574l49.467,0.123
	c13.94,0,25.237,6.306,25.237,14.086s-11.298,14.086-25.237,14.086L1429.092,1713.964z M1471.584,1707.552
	c7.244,0.001,13.118-3.481,13.118-7.78c0.003-4.298-5.87-7.783-13.115-7.785l-25.71-0.072c-0.729,0-1.321,0.636-1.321,1.421
	l-0.003,12.828c0,0.786,0.591,1.422,1.319,1.422L1471.584,1707.552z"/>
<path fill="#606163" d="M1429.206,1713.811c-1.396,0-2.53-1.143-2.53-2.553v-23.029c0-1.411,1.134-2.553,2.53-2.553l49.224,0.122
	c13.871,0,25.114,6.255,25.114,13.971c0,7.716-11.243,13.97-25.114,13.97L1429.206,1713.811z M1471.589,1707.613
	c7.31,0.003,13.236-3.534,13.238-7.902c0.001-4.366-5.922-7.908-13.231-7.911l-25.94-0.08c-0.737,0-1.333,0.646-1.333,1.444
	l-0.005,13.033c-0.001,0.799,0.596,1.445,1.332,1.445L1471.589,1707.613L1471.589,1707.613z"/>
<path fill="#696A6C" d="M1429.322,1713.657c-1.394-0.005-2.521-1.138-2.517-2.532v-22.84c0-1.398,1.128-2.532,2.517-2.532
	l48.98,0.122c13.804,0,24.992,6.204,24.992,13.857c0,7.652-11.189,13.856-24.992,13.856L1429.322,1713.657z M1471.595,1707.673
	c7.374,0.004,13.354-3.588,13.357-8.023s-5.973-8.034-13.346-8.039l-26.17-0.085c-0.743,0-1.345,0.657-1.345,1.467l-0.008,13.237
	c-0.001,0.81,0.601,1.468,1.344,1.468L1471.595,1707.673L1471.595,1707.673z"/>
<path fill="#707274" d="M1429.438,1713.503c-1.385-0.001-2.506-1.125-2.504-2.51c0,0,0-0.001,0-0.001v-22.65
	c0-1.387,1.121-2.512,2.504-2.512l48.738,0.121c13.734,0,24.867,6.153,24.867,13.741c0,7.589-11.133,13.743-24.867,13.743
	L1429.438,1713.503z M1471.602,1707.732c7.438,0.006,13.471-3.641,13.475-8.145c0.004-4.503-6.024-8.158-13.462-8.165l-26.398-0.091
	c-0.749,0-1.358,0.667-1.358,1.49l-0.011,13.442c0,0.823,0.607,1.49,1.355,1.491L1471.602,1707.732L1471.602,1707.732z"/>
<path fill="#797A7D" d="M1429.553,1713.349c-1.375,0-2.491-1.114-2.493-2.489v-22.462c0-1.375,1.118-2.489,2.493-2.489l48.494,0.118
	c13.665,0,24.743,6.102,24.743,13.627c0,7.526-11.078,13.627-24.743,13.627L1429.553,1713.349z M1471.607,1707.793
	c7.505,0.006,13.59-3.694,13.594-8.266c0.005-4.572-6.074-8.284-13.578-8.292l-26.627-0.098c-0.757-0.001-1.369,0.676-1.37,1.513
	l-0.014,13.645c0,0.837,0.611,1.514,1.368,1.515L1471.607,1707.793L1471.607,1707.793z"/>
<path fill="#818385" d="M1429.669,1713.196c-1.367,0.003-2.477-1.102-2.48-2.469v-22.272c0-1.365,1.111-2.47,2.48-2.47l48.25,0.119
	c13.598,0,24.62,6.049,24.62,13.512s-11.022,13.511-24.62,13.511L1429.669,1713.196z M1471.613,1707.853
	c7.568,0.008,13.708-3.746,13.714-8.388c0.005-4.641-6.126-8.409-13.693-8.418l-26.858-0.104c-0.762-0.001-1.38,0.686-1.382,1.534
	l-0.016,13.851c-0.001,0.848,0.616,1.537,1.379,1.538L1471.613,1707.853L1471.613,1707.853z"/>
<path fill="#898B8E" d="M1429.784,1713.042c-1.357,0.006-2.462-1.09-2.468-2.447c0,0,0-0.001,0-0.001v-22.083
	c0-1.353,1.105-2.449,2.468-2.449l48.006,0.118c13.529,0,24.496,5.998,24.496,13.397c0,7.399-10.966,13.396-24.496,13.396
	L1429.784,1713.042z M1471.619,1707.913c7.633,0.01,13.825-3.799,13.832-8.509c0.006-4.709-6.176-8.534-13.809-8.545l-27.087-0.11
	c-0.77,0-1.393,0.696-1.395,1.557l-0.019,14.056c-0.001,0.86,0.621,1.558,1.391,1.56L1471.619,1707.913L1471.619,1707.913z"/>
<path fill="#919396" d="M1429.9,1712.888c-1.348,0.008-2.448-1.079-2.456-2.427v-21.895c0-1.34,1.1-2.427,2.456-2.427l47.763,0.117
	c13.461,0,24.371,5.946,24.371,13.282c0,7.337-10.911,13.283-24.371,13.283L1429.9,1712.888L1429.9,1712.888z M1471.624,1707.972
	c7.698,0.011,13.943-3.852,13.951-8.63c0.008-4.778-6.228-8.66-13.924-8.672l-27.316-0.117c-0.775-0.001-1.405,0.706-1.406,1.58
	l-0.022,14.26c-0.001,0.874,0.626,1.582,1.401,1.584L1471.624,1707.972L1471.624,1707.972z"/>
<path fill="#999B9E" d="M1430.015,1712.735c-1.349,0-2.443-1.077-2.443-2.407v-21.704c0-1.33,1.095-2.407,2.443-2.407l47.52,0.116
	c13.392,0,24.248,5.895,24.248,13.167c0,7.273-10.856,13.167-24.248,13.167L1430.015,1712.735L1430.015,1712.735z
	 M1471.631,1708.033c7.762,0.013,14.061-3.906,14.07-8.753c0.006-4.845-6.279-8.785-14.041-8.797l-27.546-0.123
	c-0.781-0.001-1.416,0.718-1.417,1.603l-0.024,14.464c-0.001,0.885,0.631,1.605,1.412,1.605L1471.631,1708.033L1471.631,1708.033z"
	/>
<path fill="#A2A4A6" d="M1430.13,1712.581c-1.341,0-2.429-1.068-2.429-2.385v-21.516c0-1.317,1.088-2.386,2.429-2.386l47.278,0.114
	c13.322,0,24.122,5.846,24.122,13.054s-10.8,13.053-24.122,13.053L1430.13,1712.581L1430.13,1712.581z M1471.636,1708.093
	c7.828,0.014,14.18-3.958,14.188-8.873c0.01-4.915-6.328-8.91-14.155-8.924l-27.775-0.128c-0.787-0.003-1.427,0.725-1.43,1.623
	l-0.027,14.67c-0.003,0.898,0.635,1.627,1.425,1.628L1471.636,1708.093z"/>
<path fill="#AAACAF" d="M1430.245,1712.427c-1.335,0-2.418-1.059-2.418-2.365v-21.327c0-1.306,1.083-2.365,2.418-2.365l47.034,0.114
	c13.255,0,23.999,5.792,23.999,12.939c0,7.145-10.744,12.938-23.999,12.938L1430.245,1712.427z M1471.642,1708.153
	c7.893,0.017,14.298-4.011,14.307-8.995c0.011-4.982-6.379-9.035-14.271-9.051l-28.004-0.135c-0.795-0.001-1.441,0.737-1.443,1.647
	l-0.03,14.874c-0.001,0.909,0.641,1.65,1.436,1.651L1471.642,1708.153L1471.642,1708.153z"/>
<path fill="#B3B5B8" d="M1430.361,1712.274c-1.328,0-2.404-1.049-2.404-2.344v-21.137c0-1.295,1.076-2.343,2.404-2.343l46.792,0.112
	c13.185,0,23.875,5.742,23.875,12.823c0,7.083-10.69,12.824-23.875,12.824L1430.361,1712.274L1430.361,1712.274z M1471.649,1708.214
	c7.955,0.018,14.414-4.065,14.426-9.117c0.011-5.052-6.431-9.161-14.387-9.177l-28.235-0.141c-0.8-0.003-1.453,0.745-1.454,1.669
	l-0.033,15.079c-0.001,0.922,0.646,1.673,1.448,1.674L1471.649,1708.214L1471.649,1708.214z"/>
<path fill="#BBBDC0" d="M1430.476,1712.12c-1.321,0-2.393-1.04-2.393-2.323v-20.949c0-1.283,1.072-2.323,2.393-2.323l46.548,0.112
	c13.117,0,23.75,5.691,23.75,12.709c0,7.019-10.634,12.709-23.75,12.709L1430.476,1712.12L1430.476,1712.12z M1471.654,1708.273
	c8.021,0.019,14.533-4.117,14.545-9.238c0.013-5.121-6.482-9.286-14.502-9.304l-28.463-0.149c-0.808-0.001-1.466,0.757-1.467,1.693
	l-0.036,15.282c-0.002,0.936,0.652,1.697,1.461,1.698L1471.654,1708.273L1471.654,1708.273z"/>
<path fill="#4C4C4E" d="M1364.858,1714.75c-17.542-0.565-31.779-6.642-31.779-14.833c0-8.194,14.235-14.318,31.779-14.835
	c3.23-0.095,6.693-0.19,9.969-0.19s6.74,0.095,9.969,0.19c17.544,0.517,31.778,6.641,31.778,14.835
	c0,8.191-14.235,14.268-31.778,14.833c-2.949,0.094-5.851,0.191-9.969,0.191S1367.807,1714.844,1364.858,1714.75L1364.858,1714.75z
	 M1374.828,1708.362c2.242,0,3.82-0.053,5.424-0.107c9.545-0.318,17.292-3.734,17.292-8.339c0-4.606-7.746-8.049-17.292-8.34
	c-1.807-0.064-3.616-0.1-5.424-0.108c-1.783,0-3.668,0.053-5.424,0.108c-9.548,0.291-17.292,3.734-17.292,8.34
	c0,4.605,7.746,8.021,17.292,8.339C1371.007,1708.309,1372.586,1708.362,1374.828,1708.362z"/>
<path fill="#565759" d="M1364.83,1714.603c-17.45-0.56-31.613-6.59-31.613-14.721c0-8.131,14.161-14.208,31.613-14.721
	c3.212-0.095,6.657-0.191,9.916-0.191c3.259,0,6.704,0.095,9.916,0.191c17.454,0.513,31.613,6.59,31.613,14.721
	c0,8.13-14.162,14.16-31.613,14.721c-2.932,0.094-5.819,0.19-9.916,0.19C1370.649,1714.793,1367.763,1714.697,1364.83,1714.603z
	 M1374.789,1708.44c2.261,0,3.853-0.055,5.474-0.108c9.629-0.324,17.445-3.792,17.445-8.468c0-4.677-7.814-8.174-17.445-8.47
	c-1.824-0.063-3.649-0.099-5.474-0.108c-1.798,0-3.699,0.053-5.472,0.108c-9.632,0.296-17.446,3.792-17.446,8.47
	c0,4.676,7.816,8.144,17.446,8.468C1370.935,1708.385,1372.529,1708.44,1374.789,1708.44z"/>
<path fill="#606163" d="M1364.801,1714.457c-17.358-0.556-31.447-6.541-31.447-14.608c0-8.068,14.087-14.099,31.447-14.609
	c3.195-0.094,6.623-0.188,9.864-0.188c3.242,0,6.67,0.094,9.865,0.188c17.36,0.509,31.447,6.541,31.447,14.609
	c0,8.067-14.088,14.051-31.447,14.608c-2.918,0.093-5.79,0.187-9.865,0.187S1367.719,1714.55,1364.801,1714.457z M1374.751,1708.517
	c2.281,0,3.887-0.055,5.522-0.11c9.714-0.328,17.598-3.849,17.598-8.597c0-4.749-7.884-8.298-17.598-8.598
	c-1.84-0.064-3.681-0.101-5.522-0.111c-1.814,0-3.733,0.056-5.521,0.111c-9.715,0.3-17.598,3.849-17.598,8.598
	c0,4.747,7.884,8.269,17.598,8.597C1370.864,1708.463,1372.47,1708.517,1374.751,1708.517z"/>
<path fill="#696A6C" d="M1364.773,1714.311c-17.267-0.552-31.28-6.491-31.28-14.496c0-8.006,14.012-13.99,31.28-14.496
	c3.177-0.093,6.588-0.185,9.812-0.185s6.633,0.093,9.812,0.185c17.268,0.505,31.279,6.49,31.279,14.496
	c0,8.005-14.012,13.943-31.279,14.496c-2.902,0.091-5.759,0.185-9.812,0.185C1370.531,1714.496,1367.675,1714.402,1364.773,1714.311
	z M1374.714,1708.595c2.3,0,3.921-0.055,5.569-0.11c9.798-0.334,17.752-3.908,17.752-8.727c0-4.818-7.953-8.423-17.752-8.726
	c-1.856-0.066-3.712-0.103-5.569-0.112c-1.83,0-3.766,0.055-5.569,0.112c-9.801,0.303-17.752,3.908-17.752,8.726
	c0,4.82,7.951,8.393,17.752,8.727C1370.793,1708.54,1372.413,1708.595,1374.714,1708.595z"/>
<path fill="#707274" d="M1364.744,1714.164c-17.174-0.547-31.113-6.439-31.113-14.381c0-7.944,13.937-13.881,31.113-14.383
	c3.161-0.093,6.552-0.184,9.76-0.184s6.599,0.091,9.76,0.184c17.175,0.502,31.112,6.439,31.112,14.383
	c0,7.943-13.938,13.834-31.112,14.381c-2.887,0.093-5.728,0.184-9.76,0.184S1367.63,1714.256,1364.744,1714.164L1364.744,1714.164z
	 M1374.676,1708.672c2.32,0,3.956-0.056,5.617-0.113c9.883-0.337,17.906-3.965,17.906-8.854c0-4.891-8.021-8.548-17.906-8.857
	c-1.872-0.067-3.744-0.104-5.617-0.113c-1.847,0-3.799,0.056-5.617,0.113c-9.884,0.309-17.904,3.966-17.904,8.857
	c0,4.89,8.02,8.518,17.904,8.854C1370.72,1708.616,1372.356,1708.672,1374.676,1708.672L1374.676,1708.672z"/>
<path fill="#797A7D" d="M1364.714,1714.017c-17.081-0.543-30.945-6.389-30.945-14.27s13.862-13.772,30.945-14.27
	c3.146-0.09,6.519-0.183,9.709-0.183c3.19,0,6.562,0.093,9.707,0.183c17.084,0.498,30.945,6.389,30.945,14.27
	s-13.862,13.726-30.945,14.27c-2.87,0.091-5.697,0.183-9.707,0.183C1370.412,1714.2,1367.587,1714.109,1364.714,1714.017z
	 M1374.638,1708.75c2.341,0,3.99-0.057,5.665-0.114c9.968-0.343,18.059-4.023,18.059-8.984c0-4.962-8.09-8.672-18.059-8.985
	c-1.888-0.067-3.776-0.106-5.665-0.116c-1.862,0-3.83,0.058-5.664,0.116c-9.969,0.314-18.058,4.023-18.058,8.985
	c0,4.961,8.089,8.641,18.058,8.984C1370.649,1708.692,1372.299,1708.75,1374.638,1708.75L1374.638,1708.75z"/>
<path fill="#818385" d="M1364.687,1713.871c-16.99-0.54-30.778-6.339-30.778-14.157c0-7.819,13.787-13.663,30.778-14.157
	c3.127-0.09,6.482-0.183,9.656-0.183c3.172,0,6.526,0.093,9.655,0.183c16.993,0.494,30.78,6.337,30.78,14.157
	c0,7.818-13.79,13.617-30.78,14.157c-2.855,0.09-5.666,0.18-9.655,0.18C1370.353,1714.052,1367.543,1713.962,1364.687,1713.871
	L1364.687,1713.871z M1374.601,1708.828c2.36,0,4.022-0.058,5.713-0.117c10.053-0.347,18.212-4.08,18.212-9.114
	c0-5.033-8.157-8.796-18.212-9.114c-1.903-0.068-3.808-0.107-5.713-0.117c-1.878,0-3.862,0.058-5.714,0.117
	c-10.055,0.318-18.212,4.081-18.212,9.114c0,5.033,8.158,8.767,18.212,9.114C1370.577,1708.77,1372.24,1708.828,1374.601,1708.828
	L1374.601,1708.828z"/>
<path fill="#898B8E" d="M1364.657,1713.724c-16.896-0.535-30.611-6.288-30.611-14.044c0-7.755,13.712-13.553,30.611-14.044
	c3.112-0.089,6.448-0.179,9.604-0.179c3.156,0,6.492,0.09,9.602,0.179c16.9,0.49,30.612,6.289,30.612,14.044
	c0,7.756-13.713,13.509-30.612,14.044c-2.84,0.09-5.635,0.18-9.602,0.18C1370.294,1713.904,1367.498,1713.814,1364.657,1713.724
	L1364.657,1713.724z M1374.562,1708.906c2.381,0,4.058-0.058,5.762-0.118c10.138-0.352,18.365-4.139,18.365-9.243
	s-8.226-8.92-18.365-9.242c-1.92-0.07-3.841-0.11-5.762-0.119c-1.892,0-3.894,0.06-5.761,0.119
	c-10.138,0.321-18.365,4.138-18.365,9.242s8.228,8.891,18.365,9.243C1370.506,1708.847,1372.182,1708.906,1374.562,1708.906z"/>
<path fill="#919396" d="M1364.629,1713.578c-16.806-0.531-30.444-6.237-30.444-13.931c0-7.694,13.637-13.445,30.444-13.931
	c3.094-0.089,6.412-0.179,9.55-0.179c3.139,0,6.457,0.09,9.552,0.179c16.807,0.485,30.444,6.237,30.444,13.931
	c0,7.694-13.639,13.4-30.444,13.931c-2.826,0.088-5.606,0.178-9.552,0.178C1370.235,1713.756,1367.454,1713.666,1364.629,1713.578
	L1364.629,1713.578z M1374.525,1708.983c2.4,0,4.091-0.06,5.81-0.119c10.221-0.357,18.518-4.197,18.518-9.371
	c0-5.177-8.296-9.046-18.518-9.373c-1.936-0.07-3.873-0.11-5.81-0.121c-1.909,0-3.927,0.061-5.809,0.121
	c-10.225,0.326-18.519,4.196-18.519,9.373c0,5.174,8.296,9.014,18.519,9.371C1370.435,1708.924,1372.125,1708.983,1374.525,1708.983
	z"/>
<path fill="#999B9E" d="M1364.6,1713.431c-16.712-0.527-30.277-6.186-30.277-13.816c0-7.631,13.562-13.336,30.277-13.818
	c3.077-0.089,6.378-0.178,9.5-0.178c3.122,0,6.421,0.089,9.498,0.178c16.714,0.481,30.278,6.186,30.278,13.818
	c0,7.63-13.565,13.289-30.278,13.816c-2.809,0.088-5.575,0.177-9.498,0.177C1370.176,1713.607,1367.411,1713.518,1364.6,1713.431
	L1364.6,1713.431z M1374.487,1709.061c2.421,0,4.125-0.061,5.857-0.121c10.309-0.362,18.673-4.255,18.673-9.501
	c0-5.246-8.364-9.171-18.673-9.501c-1.952-0.071-3.904-0.112-5.857-0.122c-1.924,0-3.96,0.061-5.857,0.122
	c-10.308,0.33-18.672,4.254-18.672,9.501c0,5.246,8.364,9.139,18.672,9.501C1370.362,1709,1372.068,1709.061,1374.487,1709.061z"/>
<path fill="#A2A4A6" d="M1364.572,1713.285c-16.622-0.522-30.112-6.137-30.112-13.704c0-7.569,13.489-13.227,30.112-13.705
	c3.059-0.088,6.342-0.177,9.446-0.177c3.105,0,6.387,0.089,9.446,0.177c16.623,0.478,30.112,6.135,30.112,13.705
	c0,7.568-13.49,13.182-30.112,13.704c-2.794,0.086-5.544,0.175-9.446,0.175S1367.368,1713.371,1364.572,1713.285L1364.572,1713.285z
	 M1374.449,1709.139c2.441,0,4.161-0.062,5.907-0.124c10.391-0.366,18.825-4.312,18.825-9.629s-8.433-9.295-18.825-9.629
	c-1.968-0.073-3.937-0.114-5.907-0.125c-1.941,0-3.992,0.062-5.904,0.125c-10.394,0.334-18.825,4.312-18.825,9.629
	s8.433,9.263,18.825,9.629C1370.291,1709.077,1372.009,1709.139,1374.449,1709.139z"/>
<path fill="#AAACAF" d="M1364.543,1713.137c-16.528-0.518-29.944-6.085-29.944-13.59c0-7.507,13.414-13.118,29.944-13.593
	c3.044-0.086,6.307-0.174,9.394-0.174s6.351,0.088,9.394,0.174c16.53,0.475,29.944,6.086,29.944,13.593
	c0,7.506-13.415,13.072-29.944,13.59c-2.779,0.086-5.513,0.174-9.394,0.174S1367.323,1713.224,1364.543,1713.137z
	 M1374.412,1709.217c2.46,0,4.192-0.062,5.954-0.126c10.476-0.371,18.979-4.369,18.979-9.759c0-5.389-8.501-9.418-18.979-9.757
	c-1.929-0.065-3.998-0.127-5.954-0.127c-1.957,0-4.026,0.062-5.954,0.127c-10.478,0.339-18.979,4.369-18.979,9.757
	c0,5.39,8.503,9.388,18.979,9.759C1370.219,1709.155,1371.952,1709.217,1374.412,1709.217z"/>
<path fill="#B3B5B8" d="M1364.515,1712.991c-16.438-0.514-29.778-6.035-29.778-13.479s13.339-13.009,29.778-13.479
	c3.026-0.086,6.271-0.173,9.341-0.173c3.071,0,6.316,0.086,9.342,0.173c16.439,0.47,29.778,6.035,29.778,13.479
	s-13.34,12.964-29.778,13.479c-2.764,0.086-5.483,0.173-9.342,0.173C1369.998,1713.164,1367.279,1713.078,1364.515,1712.991
	L1364.515,1712.991z M1374.374,1709.294c2.48,0,4.227-0.064,6.002-0.127c10.56-0.376,19.133-4.427,19.133-9.888
	c0-5.46-8.571-9.543-19.133-9.887c-1.944-0.063-4.03-0.127-6.002-0.127s-4.058,0.063-6.002,0.127
	c-10.561,0.344-19.131,4.427-19.131,9.887c0,5.461,8.571,9.512,19.131,9.888C1370.148,1709.231,1371.894,1709.294,1374.374,1709.294
	z"/>
<path fill="#BBBDC0" d="M1364.487,1712.844c-16.345-0.509-29.611-5.984-29.611-13.364c0-7.383,13.264-12.899,29.611-13.365
	c3.009-0.086,6.236-0.172,9.289-0.172c3.052,0,6.28,0.085,9.289,0.172c16.348,0.466,29.611,5.983,29.611,13.365
	c0,7.38-13.265,12.855-29.611,13.364c-3.095,0.11-6.192,0.167-9.289,0.17C1369.938,1713.014,1367.234,1712.93,1364.487,1712.844
	L1364.487,1712.844z M1374.336,1709.373c2.499,0,4.261-0.065,6.05-0.13c10.646-0.382,19.285-4.486,19.285-10.018
	c0-5.531-8.639-9.667-19.285-10.015c-2.016-0.076-4.033-0.12-6.05-0.13c-1.988,0-4.089,0.063-6.05,0.13
	c-10.646,0.348-19.285,4.484-19.285,10.015c0,5.532,8.64,9.635,19.285,10.018
	C1370.076,1709.308,1371.837,1709.373,1374.336,1709.373z"/>
<path fill="#4C4C4E" d="M1593.781,1687.016c0-0.822-0.61-1.488-1.363-1.488l-40.786-0.006c-2.996,0-6.165-0.074-9.117,0.019
	c-16.045,0.499-29.063,6.408-29.063,14.315c0,7.905,7.385,14.214,29.063,14.314c1.979,0.009,7.565-0.024,9.117-0.024l39.401,0.004
	c1.422,0,2.576-1.157,2.576-2.582v-11.698c0.001-1.424-1.152-2.579-2.576-2.581c0,0,0,0,0,0l-39.481-0.003
	c-0.754,0-1.365,0.667-1.365,1.487v3.391c0,0.822,0.611,1.487,1.365,1.487l22.12,0.022c0.753,0,1.363,0.667,1.363,1.487v1.711
	c0,0.82-0.61,1.486-1.363,1.486l-21.69-0.005c-1.946,0-3.315-0.056-4.708-0.11c-8.282-0.328-15.004-3.634-15.004-8.386
	c0-4.755,6.721-7.187,15.004-7.488c1.526-0.056,3.161-0.11,4.708-0.11l40.437,0.009c0.753,0,1.363-0.996,1.363-1.817V1687.016
	L1593.781,1687.016z"/>
<path fill="#565759" d="M1513.576,1699.837c0,7.812,7.341,14,28.899,14.122c2.007,0.01,7.443-0.011,9.068-0.011l39.182,0.004
	c1.415,0,2.562-1.143,2.562-2.551v-11.464c-0.003-1.411-1.149-2.553-2.56-2.55c0,0-0.001,0-0.001,0l-39.096-0.003
	c-0.749,0-1.358,0.658-1.358,1.469v3.185c0,0.812,0.608,1.469,1.358,1.469l22.113,0.022c0.748,0,1.356,0.658,1.356,1.469v1.957
	c0,0.813-0.608,1.471-1.356,1.471l-21.871,0.003c-1.866,0-3.27-0.058-4.586-0.109c-8.472-0.311-15.179-3.811-15.179-8.508
	c0-4.78,6.839-7.302,15.077-7.6c1.515-0.055,3.142-0.109,4.68-0.109l40.237,0.009c0.751,0,1.356-0.963,1.356-1.774v-3.226
	c0-0.813-0.606-1.471-1.356-1.471l-40.559-0.006c-2.981-0.003-6.11-0.062-9.068,0.029
	C1526.485,1686.154,1513.576,1692.132,1513.576,1699.837L1513.576,1699.837z"/>
<path fill="#606163" d="M1513.703,1699.816c0,7.72,7.295,13.788,28.733,13.931c2.035,0.014,7.322,0.004,9.017,0.004l38.965,0.002
	c1.399,0.007,2.539-1.122,2.546-2.521c0,0,0,0,0,0v-11.231c-0.007-1.399-1.147-2.528-2.546-2.521c0,0,0,0,0,0l-38.711-0.001
	c-0.745,0-1.35,0.65-1.35,1.452v2.978c0,0.801,0.604,1.452,1.35,1.452l22.108,0.022c0.743,0,1.348,0.65,1.348,1.454v2.205
	c0,0.803-0.605,1.452-1.348,1.452l-22.051,0.011c-1.787,0-3.227-0.061-4.464-0.108c-8.664-0.293-15.357-3.988-15.357-8.63
	c0-4.807,6.958-7.418,15.15-7.711c1.509-0.053,3.125-0.108,4.656-0.108l40.039,0.009c0.745,0,1.349-0.93,1.349-1.732v-3.017
	c0-0.803-0.603-1.453-1.349-1.453l-40.335-0.006c-2.964-0.006-6.053-0.051-9.017,0.039
	C1526.499,1686.269,1513.703,1692.313,1513.703,1699.816L1513.703,1699.816z"/>
<path fill="#696A6C" d="M1513.828,1699.797c0,7.628,7.252,13.576,28.57,13.738c2.063,0.016,7.197,0.018,8.965,0.018l38.748,0.002
	c1.398,0,2.532-1.115,2.532-2.49v-10.997c0-1.375-1.134-2.49-2.532-2.49l-38.327-0.003c-0.742,0-1.341,0.643-1.341,1.435v2.771
	c0,0.794,0.599,1.435,1.341,1.435l22.103,0.022c0.74,0,1.34,0.643,1.34,1.435v2.455c0,0.792-0.599,1.434-1.34,1.434l-22.23,0.019
	c-1.709,0-3.184-0.067-4.345-0.107c-8.852-0.304-15.531-4.166-15.531-8.75c0-4.835,7.076-7.535,15.222-7.824
	c1.542-0.063,3.086-0.098,4.629-0.107l39.84,0.009c0.742,0,1.344-0.897,1.344-1.689v-2.809c0-0.794-0.602-1.435-1.344-1.435
	l-40.109-0.008c-2.948-0.009-5.997-0.038-8.965,0.051C1526.514,1686.385,1513.828,1692.496,1513.828,1699.797L1513.828,1699.797z"/>
<path fill="#707274" d="M1513.953,1699.778c0,7.534,7.207,13.362,28.405,13.546c2.09,0.019,7.075,0.031,8.917,0.031l38.528,0.002
	c1.391,0,2.518-1.101,2.518-2.46v-10.765c0-1.358-1.128-2.459-2.518-2.459l-37.943-0.004c-0.737,0-1.333,0.635-1.333,1.419v2.565
	c0,0.782,0.597,1.417,1.333,1.417l22.097,0.022c0.735,0,1.333,0.634,1.333,1.417v2.703c0,0.784-0.598,1.417-1.333,1.417
	l-22.41,0.027c-1.629,0-3.141-0.071-4.222-0.105c-9.042-0.296-15.709-4.342-15.709-8.872c0-4.862,7.196-7.651,15.296-7.936
	c1.492-0.052,3.091-0.105,4.604-0.105l39.641,0.009c0.738,0,1.333-0.862,1.333-1.647v-2.601c0-0.784-0.596-1.419-1.333-1.419
	l-39.882-0.006c-2.932-0.011-5.942-0.027-8.917,0.061C1526.528,1686.499,1513.953,1692.678,1513.953,1699.778L1513.953,1699.778z"/>
<path fill="#797A7D" d="M1514.079,1699.758c0,7.442,7.161,13.151,28.24,13.354c2.118,0.023,6.952,0.046,8.866,0.046l38.312,0.003
	c1.382,0,2.503-1.088,2.503-2.431v-10.531c0-1.341-1.121-2.429-2.503-2.429l-37.559-0.003c-0.733,0-1.326,0.627-1.326,1.401v2.358
	c0,0.773,0.593,1.401,1.326,1.401l22.09,0.02c0.733,0,1.326,0.627,1.326,1.401v2.95c0,0.773-0.593,1.4-1.326,1.4l-22.589,0.034
	c-1.551,0-3.096-0.072-4.102-0.103c-9.23-0.283-15.884-4.519-15.884-8.993c0-4.889,7.315-7.766,15.37-8.049
	c1.483-0.052,3.073-0.104,4.577-0.104l39.443,0.009c0.734,0,1.326-0.831,1.326-1.604v-2.394c0-0.773-0.592-1.4-1.326-1.4
	l-39.657-0.006c-2.955-0.027-5.911-0.004-8.866,0.071C1526.543,1686.616,1514.079,1692.861,1514.079,1699.758L1514.079,1699.758z"/>
<path fill="#818385" d="M1514.206,1699.739c0,7.349,7.116,12.938,28.073,13.162c2.146,0.024,6.83,0.058,8.816,0.058l38.092,0.003
	c1.375,0,2.489-1.074,2.489-2.4v-10.298c0-1.325-1.114-2.399-2.489-2.399l-37.173-0.001c-0.729,0-1.32,0.618-1.32,1.383v2.153
	c0,0.763,0.591,1.382,1.32,1.382l22.085,0.02c0.728,0,1.317,0.62,1.317,1.384v3.199c0,0.763-0.589,1.382-1.317,1.382l-22.771,0.043
	c-1.472,0-3.053-0.076-3.98-0.103c-9.421-0.273-16.059-4.697-16.059-9.115c0-4.916,7.433-7.882,15.442-8.161
	c1.474-0.051,3.056-0.103,4.552-0.103l39.243,0.009c0.729,0,1.319-0.796,1.319-1.561v-2.186c0-0.765-0.59-1.383-1.319-1.383
	l-39.431-0.008c-2.939-0.024-5.878,0.004-8.816,0.083C1526.557,1686.73,1514.206,1693.042,1514.206,1699.739L1514.206,1699.739z"/>
<path fill="#898B8E" d="M1514.332,1699.719c0,7.258,7.071,12.727,27.908,12.972c2.176,0.025,6.707,0.071,8.766,0.071l37.876,0.004
	c1.365,0,2.474-1.062,2.474-2.371v-10.063c0-1.309-1.109-2.37-2.474-2.37l-36.791-0.003c-0.724,0-1.311,0.612-1.311,1.366v1.946
	c0,0.754,0.587,1.365,1.311,1.365l22.079,0.02c0.724,0,1.312,0.611,1.312,1.365v3.448c0,0.754-0.588,1.365-1.312,1.365
	l-22.949,0.051c-1.395,0-3.011-0.079-3.86-0.102c-9.61-0.259-16.236-4.873-16.236-9.237c0-4.943,7.553-7.997,15.516-8.273
	c1.466-0.051,3.038-0.102,4.524-0.102l39.046,0.009c0.725,0,1.313-0.763,1.313-1.518v-1.979c0-0.756-0.588-1.365-1.313-1.365
	l-39.206-0.006c-2.884-0.023-5.775,0.008-8.766,0.091C1526.571,1686.846,1514.332,1693.225,1514.332,1699.719L1514.332,1699.719z"/>
<path fill="#919396" d="M1514.456,1699.699c0,7.165,7.028,12.513,27.746,12.779c2.201,0.029,6.582,0.085,8.713,0.085l37.658,0.004
	c1.36,0,2.461-1.049,2.461-2.339v-9.832c0-1.292-1.101-2.338-2.461-2.338l-36.405-0.002c-0.72,0-1.303,0.603-1.303,1.347v1.741
	c0,0.744,0.583,1.347,1.303,1.347l22.074,0.02c0.72,0,1.303,0.603,1.303,1.347v3.696c0,0.745-0.583,1.349-1.303,1.349l-23.129,0.058
	c-1.316,0-2.968-0.081-3.739-0.1c-9.801-0.245-16.411-5.05-16.411-9.359c0-4.968,7.672-8.113,15.588-8.385
	c1.457-0.051,3.02-0.1,4.5-0.1l38.845,0.009c0.721,0,1.304-0.73,1.304-1.474v-1.772c0-0.745-0.583-1.347-1.304-1.347l-38.981-0.006
	c-2.869-0.025-5.718,0.02-8.713,0.103C1526.586,1686.961,1514.456,1693.407,1514.456,1699.699L1514.456,1699.699z"/>
<path fill="#999B9E" d="M1514.582,1699.68c0,7.071,6.984,12.3,27.581,12.586c2.23,0.033,6.46,0.1,8.665,0.1l37.438,0.003
	c1.35,0,2.447-1.034,2.447-2.309v-9.599c0-1.275-1.097-2.309-2.447-2.309l-36.02-0.001c-0.715,0-1.297,0.594-1.297,1.33v1.534
	c0,0.734,0.582,1.331,1.297,1.331l22.069,0.019c0.714,0,1.294,0.596,1.294,1.331v3.945c0,0.735-0.58,1.33-1.294,1.33l-23.311,0.066
	c-1.237,0-2.924-0.081-3.617-0.098c-9.991-0.227-16.587-5.227-16.587-9.479c0-4.996,7.79-8.23,15.662-8.498
	c1.49-0.058,2.981-0.091,4.472-0.099l38.649,0.009c0.715,0,1.297-0.697,1.297-1.432v-1.563c0-0.734-0.582-1.33-1.297-1.33
	l-38.754-0.006c-2.854-0.029-5.664,0.032-8.665,0.113C1526.6,1687.076,1514.582,1693.588,1514.582,1699.68z"/>
<path fill="#A2A4A6" d="M1514.708,1699.66c0,6.981,6.939,12.088,27.416,12.395c2.258,0.034,6.337,0.113,8.614,0.113l37.221,0.003
	c1.342,0,2.431-1.02,2.431-2.28v-9.364c0-1.259-1.088-2.278-2.431-2.278l-35.636-0.003c-0.71,0-1.288,0.588-1.288,1.314v1.327
	c0,0.725,0.578,1.312,1.288,1.312l22.064,0.02c0.71,0,1.288,0.588,1.288,1.313v4.192c0,0.726-0.578,1.313-1.288,1.313l-23.49,0.074
	c-1.157,0-2.882-0.084-3.495-0.097c-10.183-0.211-16.764-5.404-16.764-9.601c0-5.022,7.908-8.345,15.734-8.609
	c1.439-0.049,2.986-0.098,4.446-0.098l38.449,0.009c0.711,0,1.289-0.664,1.289-1.389v-1.355c0-0.726-0.578-1.313-1.289-1.313
	l-38.529-0.006c-2.837-0.032-5.608,0.043-8.614,0.124C1526.615,1687.193,1514.708,1693.771,1514.708,1699.66L1514.708,1699.66z"/>
<path fill="#AAACAF" d="M1514.835,1699.641c0,6.887,6.894,11.876,27.25,12.202c2.285,0.037,6.214,0.127,8.562,0.127l37.004,0.003
	c1.335,0,2.418-1.006,2.418-2.248v-9.131c0-1.242-1.083-2.249-2.418-2.249l-35.251-0.001c-0.707,0-1.28,0.579-1.28,1.295v1.121
	c0,0.715,0.573,1.295,1.28,1.295l22.057,0.019c0.707,0,1.28,0.58,1.28,1.297v4.441c0,0.716-0.573,1.295-1.28,1.295l-23.67,0.083
	c-1.078,0-2.837-0.088-3.374-0.098c-10.371-0.185-16.939-5.58-16.939-9.721c0-5.049,8.028-8.461,15.808-8.722
	c1.431-0.048,2.968-0.097,4.42-0.097l38.251,0.009c0.709,0,1.281-0.631,1.281-1.348v-1.147c0-0.716-0.573-1.295-1.281-1.295
	l-38.304-0.006c-2.821-0.036-5.551,0.055-8.562,0.135C1526.629,1687.307,1514.835,1693.953,1514.835,1699.641L1514.835,1699.641z"/>
<path fill="#B3B5B8" d="M1514.961,1699.622c0,6.796,6.849,11.662,27.084,12.009c2.314,0.041,6.091,0.142,8.514,0.142l36.786,0.001
	c1.328,0,2.403-0.993,2.403-2.217v-8.899c0-1.224-1.074-2.217-2.403-2.217l-34.867-0.001c-0.704,0-1.273,0.572-1.273,1.278v0.914
	c0,0.706,0.569,1.278,1.273,1.278l22.05,0.02c0.704,0,1.275,0.571,1.275,1.279v4.689c0,0.706-0.572,1.278-1.275,1.278l-23.848,0.091
	c-1,0-2.795-0.089-3.252-0.095c-10.563-0.152-17.116-5.758-17.116-9.844c0-5.076,8.146-8.576,15.879-8.834
	c1.424-0.047,2.952-0.095,4.396-0.095l38.051,0.009c0.705,0,1.275-0.598,1.275-1.304v-0.94c0-0.706-0.57-1.278-1.275-1.278
	l-38.077-0.006c-2.804-0.038-5.495,0.067-8.514,0.145C1526.645,1687.422,1514.961,1694.136,1514.961,1699.622z"/>
<path fill="#BBBDC0" d="M1589.588,1688.258c-0.001-0.697-0.568-1.261-1.265-1.26c-0.001,0-0.002,0-0.002,0l-37.852-0.006
	c-2.789-0.042-5.439,0.079-8.462,0.155c-15.348,0.391-26.92,7.172-26.92,12.456c0,6.702,6.803,11.449,26.92,11.817
	c2.341,0.043,5.968,0.155,8.462,0.155l36.568,0.001c1.319,0,2.39-0.979,2.39-2.187v-8.665c0-1.208-1.071-2.188-2.39-2.188
	l-34.482-0.001c-0.697-0.001-1.264,0.563-1.265,1.26c0,0,0,0.001,0,0.001v0.709c0,0.696,0.566,1.26,1.265,1.26l22.045,0.019
	c0.698,0,1.265,0.564,1.265,1.261v4.938c-0.001,0.697-0.566,1.262-1.264,1.261c0,0-0.001,0-0.001,0l-24.028,0.098
	c-0.921,0-2.751-0.089-3.132-0.093c-10.753-0.108-17.292-5.935-17.292-9.966c0-5.103,8.266-8.692,15.952-8.946
	c1.416-0.047,2.934-0.094,4.369-0.094l37.852,0.009c0.698,0.002,1.265-0.562,1.267-1.26c0,0,0-0.001,0-0.001V1688.258
	L1589.588,1688.258z"/>
<path fill="#BBBDC0" d="M1589.588,1688.258c-0.001-0.697-0.568-1.261-1.265-1.26c-0.001,0-0.002,0-0.002,0l-37.852-0.006
	c-2.789-0.042-5.439,0.079-8.462,0.155c-15.348,0.391-26.92,7.172-26.92,12.456c0,6.702,6.803,11.449,26.92,11.817
	c2.341,0.043,5.968,0.155,8.462,0.155l36.568,0.001c1.319,0,2.39-0.979,2.39-2.187v-8.665c0-1.208-1.071-2.188-2.39-2.188
	l-34.482-0.001c-0.697-0.001-1.264,0.563-1.265,1.26c0,0,0,0.001,0,0.001v0.709c0,0.696,0.566,1.26,1.265,1.26l22.045,0.019
	c0.698,0,1.265,0.564,1.265,1.261v4.938c-0.001,0.697-0.566,1.262-1.264,1.261c0,0-0.001,0-0.001,0l-24.028,0.098
	c-0.921,0-2.751-0.089-3.132-0.093c-10.753-0.108-17.292-5.935-17.292-9.966c0-5.103,8.266-8.692,15.952-8.946
	c1.416-0.047,2.934-0.094,4.369-0.094l37.852,0.009c0.698,0.002,1.265-0.562,1.267-1.26c0,0,0-0.001,0-0.001V1688.258
	L1589.588,1688.258z"/>
<path fill="#BBBDC0" d="M1589.588,1688.258c-0.001-0.697-0.568-1.261-1.265-1.26c-0.001,0-0.002,0-0.002,0l-37.852-0.006
	c-2.789-0.042-5.439,0.079-8.462,0.155c-15.348,0.391-26.92,7.172-26.92,12.456c0,6.702,6.803,11.449,26.92,11.817
	c2.341,0.043,5.968,0.155,8.462,0.155l36.568,0.001c1.319,0,2.39-0.979,2.39-2.187v-8.665c0-1.208-1.071-2.188-2.39-2.188
	l-34.482-0.001c-0.697-0.001-1.264,0.563-1.265,1.26c0,0,0,0.001,0,0.001v0.709c0,0.696,0.566,1.26,1.265,1.26l22.045,0.019
	c0.698,0,1.265,0.565,1.265,1.261v4.938c-0.001,0.697-0.566,1.262-1.264,1.261c0,0-0.001,0-0.001,0l-24.028,0.098
	c-0.921,0-2.751-0.089-3.132-0.093c-10.753-0.108-17.292-5.935-17.292-9.966c0-5.103,8.266-8.692,15.952-8.946
	c1.416-0.047,2.934-0.094,4.369-0.094l37.852,0.009c0.698,0.002,1.265-0.562,1.267-1.26c0,0,0-0.001,0-0.001V1688.258
	L1589.588,1688.258z"/>
<path fill="#BBBDC0" d="M1589.588,1688.258c-0.001-0.697-0.568-1.261-1.265-1.26c-0.001,0-0.002,0-0.002,0l-37.852-0.006
	c-2.789-0.042-5.439,0.079-8.462,0.155c-15.348,0.391-26.92,7.172-26.92,12.456c0,6.703,6.803,11.449,26.92,11.817
	c2.341,0.043,5.968,0.155,8.462,0.155l36.568,0.001c1.319,0,2.39-0.979,2.39-2.187v-8.665c0-1.208-1.071-2.188-2.39-2.188
	l-34.482-0.001c-0.697-0.001-1.264,0.563-1.265,1.26c0,0,0,0.001,0,0.001v0.709c0,0.696,0.566,1.26,1.265,1.26l22.045,0.019
	c0.698,0,1.265,0.564,1.265,1.261v4.938c-0.001,0.697-0.566,1.262-1.264,1.261c0,0-0.001,0-0.001,0l-24.028,0.098
	c-0.921,0-2.751-0.089-3.132-0.093c-10.753-0.108-17.292-5.935-17.292-9.966c0-5.103,8.266-8.692,15.952-8.946
	c1.416-0.047,2.934-0.094,4.369-0.094l37.852,0.009c0.698,0.002,1.265-0.562,1.267-1.26c0,0,0-0.001,0-0.001V1688.258
	L1589.588,1688.258z"/>
<path fill="#BBBDC0" d="M1589.588,1688.258c-0.001-0.697-0.568-1.261-1.265-1.26c-0.001,0-0.002,0-0.002,0l-37.852-0.006
	c-2.789-0.042-5.439,0.079-8.462,0.155c-15.348,0.391-26.92,7.172-26.92,12.456c0,6.702,6.803,11.449,26.92,11.817
	c2.341,0.043,5.968,0.155,8.462,0.155l36.568,0.001c1.319,0,2.39-0.979,2.39-2.187v-8.665c0-1.208-1.071-2.188-2.39-2.188
	l-34.482-0.001c-0.697-0.001-1.264,0.563-1.265,1.26c0,0,0,0.001,0,0.001v0.709c0,0.696,0.566,1.26,1.265,1.26l22.045,0.019
	c0.698,0,1.265,0.564,1.265,1.261v4.938c-0.001,0.697-0.566,1.262-1.264,1.261c0,0-0.001,0-0.001,0l-24.028,0.098
	c-0.921,0-2.751-0.089-3.132-0.093c-10.753-0.108-17.292-5.935-17.292-9.966c0-5.103,8.266-8.691,15.952-8.946
	c1.416-0.047,2.934-0.094,4.369-0.094l37.852,0.009c0.698,0.002,1.265-0.562,1.267-1.26c0,0,0-0.001,0-0.001V1688.258
	L1589.588,1688.258z"/>
<path fill="#BBBDC0" d="M1589.588,1688.258c-0.001-0.697-0.568-1.261-1.265-1.26c-0.001,0-0.002,0-0.002,0l-37.852-0.006
	c-2.789-0.042-5.439,0.079-8.462,0.155c-15.348,0.391-26.92,7.172-26.92,12.456c0,6.703,6.803,11.449,26.92,11.817
	c2.341,0.043,5.968,0.155,8.462,0.155l36.568,0.001c1.319,0,2.39-0.979,2.39-2.187v-8.665c0-1.208-1.071-2.188-2.39-2.188
	l-34.482-0.001c-0.697-0.001-1.264,0.563-1.265,1.26c0,0,0,0.001,0,0.001v0.709c0,0.696,0.566,1.26,1.265,1.26l22.045,0.019
	c0.698,0,1.265,0.564,1.265,1.261v4.938c-0.001,0.697-0.566,1.262-1.264,1.261c0,0-0.001,0-0.001,0l-24.028,0.098
	c-0.921,0-2.751-0.089-3.132-0.093c-10.753-0.108-17.292-5.935-17.292-9.966c0-5.103,8.266-8.692,15.952-8.946
	c1.416-0.047,2.934-0.094,4.369-0.094l37.852,0.009c0.698,0.002,1.265-0.562,1.267-1.26c0,0,0-0.001,0-0.001V1688.258
	L1589.588,1688.258z"/>
<path fill="#BBBDC0" d="M1589.588,1688.258c-0.001-0.697-0.568-1.261-1.265-1.26c-0.001,0-0.002,0-0.002,0l-37.852-0.006
	c-2.789-0.042-5.439,0.079-8.462,0.155c-15.348,0.391-26.92,7.172-26.92,12.456c0,6.702,6.803,11.449,26.92,11.817
	c2.341,0.043,5.968,0.155,8.462,0.155l36.568,0.001c1.319,0,2.39-0.979,2.39-2.187v-8.665c0-1.208-1.071-2.188-2.39-2.188
	l-34.482-0.001c-0.697-0.001-1.264,0.563-1.265,1.26c0,0,0,0.001,0,0.001v0.709c0,0.696,0.566,1.26,1.265,1.26l22.045,0.019
	c0.698,0,1.265,0.565,1.265,1.261v4.938c-0.001,0.697-0.566,1.262-1.264,1.261c0,0-0.001,0-0.001,0l-24.028,0.098
	c-0.921,0-2.751-0.089-3.132-0.093c-10.753-0.108-17.292-5.935-17.292-9.966c0-5.103,8.266-8.692,15.952-8.946
	c1.416-0.047,2.934-0.094,4.369-0.094l37.852,0.009c0.698,0.002,1.265-0.562,1.267-1.26c0,0,0-0.001,0-0.001V1688.258
	L1589.588,1688.258z"/>
<path fill="#BBBDC0" d="M1589.588,1688.258c-0.001-0.697-0.568-1.261-1.265-1.26c-0.001,0-0.002,0-0.002,0l-37.852-0.006
	c-2.789-0.042-5.439,0.079-8.462,0.155c-15.348,0.391-26.92,7.172-26.92,12.456c0,6.702,6.803,11.449,26.92,11.817
	c2.341,0.043,5.968,0.155,8.462,0.155l36.568,0.001c1.319,0,2.39-0.979,2.39-2.187v-8.665c0-1.208-1.071-2.188-2.39-2.188
	l-34.482-0.001c-0.697-0.001-1.264,0.563-1.265,1.26c0,0,0,0.001,0,0.001v0.709c0,0.696,0.566,1.26,1.265,1.26l22.045,0.019
	c0.698,0,1.265,0.565,1.265,1.261v4.938c-0.001,0.697-0.566,1.262-1.264,1.261c0,0-0.001,0-0.001,0l-24.028,0.098
	c-0.921,0-2.751-0.089-3.132-0.093c-10.753-0.108-17.292-5.935-17.292-9.966c0-5.103,8.266-8.692,15.952-8.946
	c1.416-0.047,2.934-0.094,4.369-0.094l37.852,0.009c0.698,0.002,1.265-0.562,1.267-1.26c0,0,0-0.001,0-0.001V1688.258
	L1589.588,1688.258z"/>
<path fill="#BBBDC0" d="M1589.588,1688.258c-0.001-0.697-0.568-1.261-1.265-1.26c-0.001,0-0.002,0-0.002,0l-37.852-0.006
	c-2.789-0.042-5.439,0.079-8.462,0.155c-15.348,0.391-26.92,7.172-26.92,12.456c0,6.703,6.803,11.449,26.92,11.817
	c2.341,0.043,5.968,0.155,8.462,0.155l36.568,0.001c1.319,0,2.39-0.979,2.39-2.187v-8.665c0-1.208-1.071-2.188-2.39-2.188
	l-34.482-0.001c-0.697-0.001-1.264,0.563-1.265,1.26c0,0,0,0.001,0,0.001v0.709c0,0.696,0.566,1.26,1.265,1.26l22.045,0.019
	c0.698,0,1.265,0.564,1.265,1.261v4.938c-0.001,0.697-0.566,1.262-1.264,1.261c0,0-0.001,0-0.001,0l-24.028,0.098
	c-0.921,0-2.751-0.089-3.132-0.093c-10.753-0.108-17.292-5.935-17.292-9.966c0-5.103,8.266-8.692,15.952-8.946
	c1.416-0.047,2.934-0.094,4.369-0.094l37.852,0.009c0.698,0.002,1.265-0.562,1.267-1.26c0,0,0-0.001,0-0.001V1688.258
	L1589.588,1688.258z"/>
<path fill="#BBBDC0" d="M1589.588,1688.258c-0.001-0.697-0.568-1.261-1.265-1.26c-0.001,0-0.002,0-0.002,0l-37.852-0.006
	c-2.789-0.042-5.439,0.079-8.462,0.155c-15.348,0.391-26.92,7.172-26.92,12.456c0,6.702,6.803,11.449,26.92,11.817
	c2.341,0.043,5.968,0.155,8.462,0.155l36.568,0.001c1.319,0,2.39-0.979,2.39-2.187v-8.665c0-1.208-1.071-2.188-2.39-2.188
	l-34.482-0.001c-0.697-0.001-1.264,0.563-1.265,1.26c0,0,0,0.001,0,0.001v0.709c0,0.696,0.566,1.26,1.265,1.26l22.045,0.019
	c0.698,0,1.265,0.564,1.265,1.261v4.938c-0.001,0.697-0.566,1.262-1.264,1.261c0,0-0.001,0-0.001,0l-24.028,0.098
	c-0.921,0-2.751-0.089-3.132-0.093c-10.753-0.108-17.292-5.935-17.292-9.966c0-5.103,8.266-8.691,15.952-8.946
	c1.416-0.047,2.934-0.094,4.369-0.094l37.852,0.009c0.698,0.002,1.265-0.562,1.267-1.26c0,0,0-0.001,0-0.001V1688.258
	L1589.588,1688.258z"/>
<path fill="#BBBDC0" d="M1589.588,1688.258c-0.001-0.697-0.568-1.261-1.265-1.26c-0.001,0-0.002,0-0.002,0l-37.852-0.006
	c-2.789-0.042-5.439,0.079-8.462,0.155c-15.348,0.391-26.92,7.172-26.92,12.456c0,6.703,6.803,11.449,26.92,11.817
	c2.341,0.043,5.968,0.155,8.462,0.155l36.568,0.001c1.319,0,2.39-0.979,2.39-2.187v-8.665c0-1.208-1.071-2.188-2.39-2.188
	l-34.482-0.001c-0.697-0.001-1.264,0.563-1.265,1.26c0,0,0,0.001,0,0.001v0.709c0,0.696,0.566,1.26,1.265,1.26l22.045,0.019
	c0.698,0,1.265,0.564,1.265,1.261v4.938c-0.001,0.697-0.566,1.262-1.264,1.261c0,0-0.001,0-0.001,0l-24.028,0.098
	c-0.921,0-2.751-0.089-3.132-0.093c-10.753-0.108-17.292-5.935-17.292-9.966c0-5.103,8.266-8.692,15.952-8.946
	c1.416-0.047,2.934-0.094,4.369-0.094l37.852,0.009c0.698,0.002,1.265-0.562,1.267-1.26c0,0,0-0.001,0-0.001V1688.258
	L1589.588,1688.258z"/>
<path fill="#BBBDC0" d="M1589.588,1688.258c-0.001-0.697-0.568-1.261-1.265-1.26c-0.001,0-0.002,0-0.002,0l-37.852-0.006
	c-2.789-0.042-5.439,0.079-8.462,0.155c-15.348,0.391-26.92,7.172-26.92,12.456c0,6.702,6.803,11.449,26.92,11.817
	c2.341,0.043,5.968,0.155,8.462,0.155l36.568,0.001c1.319,0,2.39-0.979,2.39-2.187v-8.665c0-1.208-1.071-2.188-2.39-2.188
	l-34.482-0.001c-0.697-0.001-1.264,0.563-1.265,1.26c0,0,0,0.001,0,0.001v0.709c0,0.696,0.566,1.26,1.265,1.26l22.045,0.019
	c0.698,0,1.265,0.565,1.265,1.261v4.938c-0.001,0.697-0.566,1.262-1.264,1.261c0,0-0.001,0-0.001,0l-24.028,0.098
	c-0.921,0-2.751-0.089-3.132-0.093c-10.753-0.108-17.292-5.935-17.292-9.966c0-5.103,8.266-8.692,15.952-8.946
	c1.416-0.047,2.934-0.094,4.369-0.094l37.852,0.009c0.698,0.002,1.265-0.562,1.267-1.26c0,0,0-0.001,0-0.001V1688.258
	L1589.588,1688.258z"/>
<path fill="#BBBDC0" d="M1589.588,1688.258c-0.001-0.697-0.568-1.261-1.265-1.26c-0.001,0-0.002,0-0.002,0l-37.852-0.006
	c-2.789-0.042-5.439,0.079-8.462,0.155c-15.348,0.391-26.92,7.172-26.92,12.456c0,6.703,6.803,11.449,26.92,11.817
	c2.341,0.043,5.968,0.155,8.462,0.155l36.568,0.001c1.319,0,2.39-0.979,2.39-2.187v-8.665c0-1.208-1.071-2.188-2.39-2.188
	l-34.482-0.001c-0.697-0.001-1.264,0.563-1.265,1.26c0,0,0,0.001,0,0.001v0.709c0,0.696,0.566,1.26,1.265,1.26l22.045,0.019
	c0.698,0,1.265,0.564,1.265,1.261v4.938c-0.001,0.697-0.566,1.262-1.264,1.261c0,0-0.001,0-0.001,0l-24.028,0.098
	c-0.921,0-2.751-0.089-3.132-0.093c-10.753-0.108-17.292-5.935-17.292-9.966c0-5.103,8.266-8.692,15.952-8.946
	c1.416-0.047,2.934-0.094,4.369-0.094l37.852,0.009c0.698,0.002,1.265-0.562,1.267-1.26c0,0,0-0.001,0-0.001V1688.258
	L1589.588,1688.258z"/>
<path fill="#BBBDC0" d="M1589.588,1688.258c-0.001-0.697-0.568-1.261-1.265-1.26c-0.001,0-0.002,0-0.002,0l-37.852-0.006
	c-2.789-0.042-5.439,0.079-8.462,0.155c-15.348,0.391-26.92,7.172-26.92,12.456c0,6.702,6.803,11.449,26.92,11.817
	c2.341,0.043,5.968,0.155,8.462,0.155l36.568,0.001c1.319,0,2.39-0.979,2.39-2.187v-8.665c0-1.208-1.071-2.188-2.39-2.188
	l-34.482-0.001c-0.697-0.001-1.264,0.563-1.265,1.26c0,0,0,0.001,0,0.001v0.709c0,0.696,0.566,1.26,1.265,1.26l22.045,0.019
	c0.698,0,1.265,0.564,1.265,1.261v4.938c-0.001,0.697-0.566,1.262-1.264,1.261c0,0-0.001,0-0.001,0l-24.028,0.098
	c-0.921,0-2.751-0.089-3.132-0.093c-10.753-0.108-17.292-5.935-17.292-9.966c0-5.103,8.266-8.692,15.952-8.946
	c1.416-0.047,2.934-0.094,4.369-0.094l37.852,0.009c0.698,0.002,1.265-0.562,1.267-1.26c0,0,0-0.001,0-0.001V1688.258
	L1589.588,1688.258z"/>
<path fill="#4C4C4E" d="M1608.312,1714.113c-1.395,0-2.526-1.131-2.526-2.526c0,0,0,0,0,0v-23.524c0-1.394,1.132-2.525,2.526-2.525
	l68.147-0.004c0.552,0,1,0.448,1,1v4.549c0,0.552-0.448,1-1,1l-50.062,0.027c-1.045,0-1.891,0.847-1.891,1.891v1.024
	c0,1.044,0.846,1.892,1.891,1.892l47.575,0.019c0.551,0,1,0.448,1,1v3.886c0,0.552-0.448,1-1,1l-47.672,0.005
	c-1.045,0-1.892,0.846-1.892,1.891v1.093c0,1.045,0.847,1.891,1.892,1.891l51.065-0.022c0.551,0,0.998,0.448,0.998,1.001v4.425
	c0.001,0.551-0.446,0.999-0.997,1c0,0-0.001,0-0.001,0L1608.312,1714.113L1608.312,1714.113z"/>
<path fill="#565759" d="M1608.482,1713.934c-1.388-0.002-2.511-1.128-2.51-2.516v-23.228c0-1.389,1.124-2.516,2.51-2.516h67.733
	c0.55,0,0.994,0.446,0.994,0.996v4.26c0,0.55-0.445,0.997-0.994,0.997l-50.093,0.023c-1.038,0-1.88,0.843-1.88,1.885v1.301
	c0,1.04,0.842,1.885,1.88,1.885l47.621,0.016c0.547,0,0.993,0.446,0.993,0.996v3.63c0.001,0.549-0.444,0.996-0.993,0.997
	l-47.718,0.004c-1.038,0-1.88,0.845-1.88,1.883l-0.01,1.387c0,1.041,0.852,1.877,1.89,1.877l51.089-0.019
	c0.547,0,0.993,0.447,0.993,0.997v4.143c0,0.549-0.444,0.994-0.993,0.996L1608.482,1713.934L1608.482,1713.934z"/>
<path fill="#606163" d="M1608.652,1713.755c-1.381-0.004-2.497-1.126-2.494-2.507v-22.931c0-1.384,1.118-2.506,2.494-2.506
	l67.319,0.003c0.546,0,0.988,0.444,0.988,0.992v3.971c0.001,0.547-0.441,0.99-0.988,0.992l-50.123,0.02
	c-1.033,0-1.87,0.841-1.87,1.878v1.577c0,1.036,0.837,1.877,1.87,1.877l47.664,0.014c0.546,0,0.989,0.444,0.989,0.992v3.374
	c0.001,0.547-0.442,0.991-0.989,0.992l-47.76,0.005c-1.032,0-1.869,0.841-1.869,1.877l-0.02,1.679c0,1.036,0.857,1.861,1.89,1.861
	l51.112-0.015c0.546,0,0.987,0.444,0.987,0.992v3.861c0.002,0.546-0.439,0.991-0.986,0.993c0,0-0.001,0-0.001,0L1608.652,1713.755
	L1608.652,1713.755z"/>
<path fill="#696A6C" d="M1608.824,1713.574c-1.373-0.004-2.483-1.121-2.479-2.494c0,0,0-0.001,0-0.001v-22.635
	c0-1.379,1.11-2.497,2.479-2.497l66.902,0.005c0.542,0,0.983,0.443,0.983,0.989v3.682c0,0.546-0.441,0.988-0.983,0.988
	l-50.154,0.018c-1.026,0-1.857,0.838-1.857,1.871v1.854c0,1.032,0.831,1.871,1.857,1.871l47.713,0.01
	c0.541,0,0.982,0.443,0.982,0.989v3.119c0.001,0.543-0.438,0.985-0.982,0.988l-47.808,0.004c-1.025,0-1.857,0.838-1.857,1.87
	l-0.03,1.971c0,1.034,0.862,1.848,1.887,1.848l51.139-0.013c0.541,0,0.98,0.442,0.98,0.988v3.579c0,0.546-0.439,0.989-0.98,0.989
	L1608.824,1713.574L1608.824,1713.574z"/>
<path fill="#707274" d="M1608.993,1713.395c-1.367-0.007-2.469-1.12-2.463-2.487v-22.338c0-1.374,1.104-2.487,2.463-2.487
	l66.49,0.008c0.54,0,0.977,0.441,0.977,0.984v3.393c0.003,0.542-0.434,0.983-0.975,0.986c0,0-0.001,0-0.001,0l-50.184,0.015
	c-1.02,0-1.845,0.833-1.845,1.862v2.132c0,1.029,0.826,1.863,1.845,1.863l47.757,0.009c0.537,0,0.975,0.441,0.975,0.983v2.864
	c0.002,0.541-0.434,0.981-0.975,0.984l-47.851,0.005c-1.024,0.005-1.849,0.838-1.845,1.862l-0.042,2.264
	c0,1.029,0.867,1.831,1.887,1.831l51.162-0.01c0.538,0,0.975,0.441,0.975,0.985v3.298c0.002,0.541-0.434,0.981-0.975,0.984
	L1608.993,1713.395L1608.993,1713.395z"/>
<path fill="#797A7D" d="M1609.164,1713.217c-1.36-0.008-2.456-1.118-2.448-2.478v-22.042c-0.008-1.36,1.088-2.469,2.448-2.478
	l66.076,0.011c0.535,0,0.969,0.439,0.969,0.98v3.105c0.004,0.538-0.43,0.977-0.968,0.98c0,0-0.001,0-0.001,0l-50.216,0.014
	c-1.014,0-1.834,0.831-1.834,1.854v2.409c0,1.025,0.82,1.855,1.834,1.855l47.803,0.005c0.535,0,0.969,0.439,0.969,0.98v2.609
	c0.003,0.538-0.431,0.977-0.969,0.98l-47.897,0.004c-1.012,0-1.834,0.831-1.834,1.855l-0.051,2.557c0,1.025,0.873,1.817,1.885,1.817
	l51.186-0.008c0.536,0,0.969,0.439,0.969,0.982v3.015c0.004,0.538-0.43,0.977-0.968,0.98c0,0-0.001,0-0.001,0L1609.164,1713.217
	L1609.164,1713.217z"/>
<path fill="#818385" d="M1609.334,1713.037c-1.342,0-2.432-1.104-2.432-2.466v-21.746c0-1.364,1.09-2.468,2.432-2.468l65.66,0.013
	c0.531,0,0.963,0.438,0.963,0.978v2.816c0,0.54-0.432,0.978-0.963,0.978l-50.245,0.009c-1.007,0-1.824,0.828-1.824,1.849v2.685
	c0,1.021,0.817,1.849,1.824,1.849l47.847,0.002c0.532,0,0.964,0.438,0.964,0.977v2.353c0,0.538-0.432,0.975-0.964,0.975
	l-47.941,0.005c-1.007,0-1.822,0.827-1.822,1.847l-0.062,2.85c0,1.021,0.878,1.802,1.885,1.802l51.21-0.004
	c0.533,0,0.963,0.437,0.963,0.977v2.734c0.005,0.534-0.424,0.972-0.959,0.977c-0.001,0-0.003,0-0.004,0L1609.334,1713.037
	L1609.334,1713.037z"/>
<path fill="#898B8E" d="M1609.505,1712.858c-1.335,0-2.417-1.1-2.417-2.458v-21.449c0-1.358,1.082-2.459,2.417-2.459l65.246,0.016
	c0.533,0.005,0.961,0.44,0.956,0.973v2.529c0.004,0.532-0.424,0.968-0.956,0.973l-50.277,0.008c-1.001,0-1.811,0.824-1.811,1.84
	v2.963c0,1.017,0.81,1.841,1.811,1.841h47.894c0.533,0.004,0.961,0.439,0.958,0.972v2.098c0.004,0.533-0.424,0.969-0.958,0.973
	c0,0,0,0,0,0l-47.987,0.004c-1,0-1.811,0.824-1.811,1.84l-0.071,3.143c0,1.016,0.883,1.787,1.882,1.787l51.237-0.003
	c0.532,0.006,0.959,0.441,0.955,0.973v2.454c0.004,0.532-0.423,0.967-0.955,0.973L1609.505,1712.858z"/>
<path fill="#919396" d="M1609.676,1712.679c-1.327,0-2.403-1.096-2.403-2.449v-21.153c0-1.351,1.076-2.447,2.403-2.447l64.831,0.019
	c0.524,0,0.951,0.434,0.951,0.969v2.24c0.004,0.53-0.421,0.963-0.951,0.969l-50.309,0.004c-0.993,0-1.8,0.822-1.8,1.833v3.24
	c0,1.014,0.807,1.835,1.8,1.835l47.941-0.003c0.524,0,0.951,0.433,0.951,0.968v1.843c0.004,0.53-0.421,0.963-0.951,0.968
	l-48.033,0.005c-0.993,0-1.798,0.82-1.798,1.833l-0.083,3.435c0,1.012,0.888,1.772,1.881,1.772l51.26,0.001
	c0.526,0,0.951,0.434,0.951,0.969v2.172c0.005,0.53-0.421,0.964-0.951,0.969c0,0,0,0,0,0L1609.676,1712.679L1609.676,1712.679z"/>
<path fill="#999B9E" d="M1609.845,1712.5c-1.317,0-2.386-1.091-2.386-2.438v-20.857c0-1.346,1.069-2.438,2.386-2.438l64.418,0.022
	c0.521,0,0.944,0.433,0.944,0.966v1.951c0,0.533-0.423,0.965-0.944,0.965l-50.338,0.001c-0.988,0-1.788,0.818-1.788,1.826v3.517
	c0,1.01,0.8,1.828,1.788,1.828l47.986-0.005c0.526,0.005,0.948,0.435,0.944,0.961c0,0.001,0,0.002,0,0.003v1.586
	c0,0.533-0.423,0.965-0.944,0.965l-48.078,0.005c-0.987,0-1.788,0.817-1.788,1.825l-0.091,3.727c0,1.008,0.893,1.758,1.88,1.758
	l51.285,0.003c0.522,0,0.944,0.433,0.944,0.965v1.891c0,0.533-0.422,0.965-0.944,0.965L1609.845,1712.5z"/>
<path fill="#A2A4A6" d="M1610.016,1712.319c-1.309,0-2.371-1.087-2.371-2.428v-20.56c0-1.341,1.062-2.428,2.371-2.428l64.002,0.024
	c0.518,0,0.939,0.431,0.939,0.961v1.662c0.006,0.525-0.414,0.956-0.939,0.963l-50.368-0.001c-0.98,0-1.776,0.814-1.776,1.817v3.795
	c0,1.006,0.795,1.82,1.776,1.82l48.03-0.009c0.52,0,0.94,0.43,0.94,0.961v1.331c0.006,0.525-0.415,0.954-0.94,0.96c0,0,0,0,0,0
	l-48.121,0.005c-0.98,0-1.776,0.814-1.776,1.819l-0.103,4.021c0,1.003,0.898,1.741,1.878,1.741l51.309,0.006
	c0.518,0,0.939,0.431,0.939,0.961v1.609c0.006,0.525-0.414,0.955-0.938,0.961c0,0,0,0,0,0L1610.016,1712.319z"/>
<path fill="#AAACAF" d="M1610.186,1712.141c-1.302,0-2.356-1.082-2.356-2.418v-20.264c0-1.336,1.054-2.418,2.356-2.418l63.588,0.027
	c0.514,0,0.933,0.428,0.933,0.956v1.375c0,0.528-0.419,0.958-0.933,0.958l-50.399-0.004c-0.975,0-1.765,0.81-1.765,1.811v4.07
	c0,1.002,0.79,1.814,1.765,1.814l48.076-0.011c0.516,0,0.933,0.428,0.933,0.956v1.077c0.006,0.522-0.412,0.95-0.933,0.956
	c0,0,0,0,0,0l-48.166,0.005c-0.975,0-1.764,0.81-1.764,1.81l-0.114,4.313c0,1.001,0.903,1.728,1.878,1.728l51.333,0.009
	c0.516,0,0.932,0.429,0.932,0.958v1.326c0.008,0.522-0.409,0.951-0.931,0.959c0,0-0.001,0-0.001,0L1610.186,1712.141
	L1610.186,1712.141z"/>
<path fill="#B3B5B8" d="M1610.357,1711.961c-1.292,0-2.341-1.078-2.341-2.408v-19.968c0-1.331,1.049-2.409,2.341-2.409l63.174,0.029
	c0.519,0.008,0.933,0.435,0.926,0.953c0,0,0,0,0,0v1.086c0.008,0.519-0.407,0.946-0.926,0.954c0,0,0,0,0,0l-50.43-0.006
	c-0.968,0-1.753,0.808-1.753,1.805v4.347c0,0.998,0.785,1.806,1.753,1.806l48.123-0.014c0.519,0.007,0.934,0.433,0.927,0.952
	c0,0,0,0.001,0,0.001v0.819c0.007,0.519-0.408,0.945-0.927,0.953c0,0,0,0,0,0l-48.212,0.005c-0.969,0-1.754,0.808-1.754,1.803
	l-0.122,4.606c0,0.996,0.907,1.712,1.876,1.712l51.358,0.013c0.519,0.008,0.933,0.435,0.926,0.954c0,0,0,0,0,0v1.044
	c0.008,0.519-0.407,0.946-0.926,0.954c0,0,0,0,0,0L1610.357,1711.961L1610.357,1711.961z"/>
<path fill="#BBBDC0" d="M1610.527,1711.782c-1.283,0-2.325-1.074-2.325-2.399v-19.671c0-1.325,1.043-2.399,2.325-2.399l62.76,0.032
	c0.507,0,0.92,0.427,0.92,0.95v0.796c0.008,0.516-0.403,0.942-0.92,0.951l-50.46-0.01c-0.964,0-1.744,0.805-1.744,1.797v4.625
	c0,0.993,0.78,1.797,1.744,1.797l48.167-0.015c0.508,0,0.921,0.424,0.921,0.949v0.564c0.008,0.516-0.404,0.942-0.921,0.95
	l-48.257,0.005c-0.961,0-1.741,0.804-1.741,1.796l-0.135,4.898c0,0.992,0.914,1.697,1.876,1.697l51.382,0.015
	c0.509,0,0.921,0.425,0.921,0.95v0.763c0.008,0.516-0.403,0.941-0.919,0.95c0,0-0.001,0-0.001,0L1610.527,1711.782
	L1610.527,1711.782z"/>
<linearGradient id="SVGID_1_" gradientUnits="userSpaceOnUse" x1="10.1525" y1="3002.0154" x2="10.3219" y2="3002.0154" gradientTransform="matrix(0 -95.25 -95.25 0 287226.2188 2679.6592)">
	<stop  offset="0" style="stop-color:#BBBDC0"/>
	<stop  offset="0.5" style="stop-color:#BBBDC0"/>
	<stop  offset="0.5" style="stop-color:#BBBDC0"/>
	<stop  offset="0.6" style="stop-color:#AFB1B4"/>
	<stop  offset="0.6" style="stop-color:#AFB1B4"/>
	<stop  offset="0.7" style="stop-color:#939598"/>
	<stop  offset="0.7" style="stop-color:#939598"/>
	<stop  offset="1" style="stop-color:#939598"/>
</linearGradient>
<path fill="url(#SVGID_1_)" d="M1261.194,1700.506c0.076,1.45,0.35,4.822,0.35,6.756c0,1.936,2.156,2.544,4.091,2.544
	s27.916,0.069,30.182,0c1.824-0.056,9.547-2.372,10.928-9.337c0,0,0.201-1.317,0.758-1.361c0.884-0.071,11.806-1.897,12.525-1.897
	c0.718,0,0.613,2.366,0.423,3.642c-0.198,1.317-2.845,6.223-9.821,9.12c-8.096,3.36-19.469,2.282-32.671,2.487
	c-10.669,0.165-25.362,0.1-27.436,0.058c-1.99-0.041-2.631-0.721-2.631-3.541c0-2.819,0.196-5.569,0.403-8.471
	c0.076-1.068,0.076-3.205,0.076-4.122c0.382,2.291,0.382,3.054,2.442,3.054h8.091c0.916,0,1.833-1.146,2.137-2.824
	C1260.89,1698.521,1261.165,1699.951,1261.194,1700.506L1261.194,1700.506z"/>
<linearGradient id="SVGID_2_" gradientUnits="userSpaceOnUse" x1="11.7985" y1="3002.397" x2="11.9678" y2="3002.397" gradientTransform="matrix(0 -75.75 -75.75 0 228715.7188 2593.4104)">
	<stop  offset="0" style="stop-color:#FFFFFF"/>
	<stop  offset="0.5" style="stop-color:#EFF0F1"/>
	<stop  offset="0.5" style="stop-color:#EFF0F1"/>
	<stop  offset="1" style="stop-color:#BBBDC0"/>
</linearGradient>
<path fill="url(#SVGID_2_)" d="M1320.621,1699.689c0-2.048-0.312-3.434-1.242-4.577c-1.478-1.816-5.812-6.443-19.318-7.793
	c-3.672-0.368-41.794-0.429-49.75-0.368c-1.223,0.062-2.692-0.122-2.631,1.713c0.062,1.836,0.591,8.98,0.686,10.885l12.635-0.027
	c0.245-0.918,0.448-5.902,0.448-6.636c0-0.734-0.245-3.305,3.059-3.242c3.304,0.061,20.499,0.061,24.477,0.061
	s17.929,1.178,17.929,9.991L1320.621,1699.689z"/>
<linearGradient id="SVGID_3_" gradientUnits="userSpaceOnUse" x1="10.1525" y1="3011.2974" x2="10.3219" y2="3011.2974" gradientTransform="matrix(0 -95.25 -95.25 0 288290.4688 2679.6592)">
	<stop  offset="0" style="stop-color:#BBBDC0"/>
	<stop  offset="0.5" style="stop-color:#BBBDC0"/>
	<stop  offset="0.5" style="stop-color:#BBBDC0"/>
	<stop  offset="0.6" style="stop-color:#AFB1B4"/>
	<stop  offset="0.6" style="stop-color:#AFB1B4"/>
	<stop  offset="0.7" style="stop-color:#939598"/>
	<stop  offset="0.7" style="stop-color:#939598"/>
	<stop  offset="1" style="stop-color:#939598"/>
</linearGradient>
<path fill="url(#SVGID_3_)" d="M1441.335,1700.506c0.076,1.45,0.351,4.822,0.351,6.756c0,1.936,2.156,2.544,4.091,2.544
	c1.935,0,27.926,0.069,30.193,0c1.821-0.056,9.544-2.372,10.927-9.337c0,0,0.199-1.317,0.758-1.361
	c0.884-0.071,11.806-1.897,12.524-1.897c0.719,0,0.615,2.366,0.423,3.642c-0.197,1.317-2.844,6.223-9.818,9.12
	c-8.099,3.36-19.47,2.282-32.672,2.487c-10.679,0.165-25.371,0.1-27.446,0.058c-1.989-0.041-2.631-0.721-2.631-3.541
	c0-2.819,0.196-5.569,0.404-8.471c0.075-1.068,0.075-3.205,0.075-4.122c0.382,2.291,0.382,3.054,2.443,3.054h8.091
	c0.916,0,1.831-1.146,2.136-2.824C1441.03,1698.521,1441.307,1699.951,1441.335,1700.506L1441.335,1700.506z"/>
<path fill="#FFFFFF" d="M1441.782,1709.094c0,0.987,0.188,1.608,1.688,1.608c2.757,0,22.634-0.027,26.916-0.027
	c4.284,0,9.595,0.113,14.656-4.861c1.905-1.872,0.367-1.958-1.162-0.857c-1.53,1.102-4.039,3.821-13.402,3.821
	c-9.361,0-19.456-0.027-25.209-0.027c-1.073,0-1.412-0.663-1.695-0.946C1443.289,1707.523,1441.782,1707.262,1441.782,1709.094
	L1441.782,1709.094z M1261.331,1709.094c0,0.987,0.188,1.608,1.688,1.608c2.757,0,22.622-0.027,26.907-0.027
	c4.282,0,9.595,0.113,14.656-4.861c1.904-1.872,0.367-1.958-1.163-0.857c-1.53,1.102-4.039,3.821-13.401,3.821
	s-19.449-0.027-25.201-0.027c-1.074,0-1.414-0.663-1.696-0.946C1262.839,1707.523,1261.331,1707.262,1261.331,1709.094
	L1261.331,1709.094z"/>
<linearGradient id="SVGID_4_" gradientUnits="userSpaceOnUse" x1="11.7985" y1="3014.0681" x2="11.9678" y2="3014.0681" gradientTransform="matrix(0 -75.75 -75.75 0 229779.9688 2593.4104)">
	<stop  offset="0" style="stop-color:#FFFFFF"/>
	<stop  offset="0.5" style="stop-color:#EFF0F1"/>
	<stop  offset="0.5" style="stop-color:#EFF0F1"/>
	<stop  offset="1" style="stop-color:#BBBDC0"/>
</linearGradient>
<path fill="url(#SVGID_4_)" d="M1500.772,1699.689c0-2.048-0.313-3.434-1.242-4.577c-1.478-1.816-5.812-6.443-19.318-7.793
	c-3.672-0.368-41.803-0.429-49.759-0.368c-1.224,0.062-2.692-0.122-2.631,1.713c0.061,1.836,0.59,8.98,0.684,10.885l12.636-0.027
	c0.244-0.918,0.447-5.902,0.447-6.636c0-0.734-0.245-3.305,3.059-3.242c3.304,0.061,20.509,0.061,24.486,0.061
	c3.979,0,17.93,1.178,17.93,9.991L1500.772,1699.689z"/>
<linearGradient id="SVGID_5_" gradientUnits="userSpaceOnUse" x1="11.1804" y1="3007.7803" x2="11.3499" y2="3007.7803" gradientTransform="matrix(0 -80.25 -80.25 0 242748.2031 2597.1602)">
	<stop  offset="0" style="stop-color:#FFFFFF"/>
	<stop  offset="0.5" style="stop-color:#EFF0F1"/>
	<stop  offset="0.5" style="stop-color:#EFF0F1"/>
	<stop  offset="1" style="stop-color:#BBBDC0"/>
</linearGradient>
<path fill="url(#SVGID_5_)" d="M1335.035,1699.919c-0.38-1.14,0.061-3.256,1.745-4.939c1.684-1.684,5.738-4.986,15.244-6.887
	c9.506-1.9,11.572-1.756,21.512-1.756c9.94,0,18.71,0.147,27.402,2.753c8.691,2.609,10.465,5.466,11.411,7.535
	c0.702,1.538,0.356,3.208,0.356,3.208l-12.526,0.025c-0.217-1.955-1.427-6.82-9.332-8.834c-6.796-1.731-11.636-1.729-17.447-1.729
	c-5.813,0-13.58,0.108-18.36,2.552c-4.78,2.445-6.464,4.775-6.9,8.087L1335.035,1699.919L1335.035,1699.919z"/>
<linearGradient id="SVGID_6_" gradientUnits="userSpaceOnUse" x1="11.6896" y1="3007.5818" x2="11.859" y2="3007.5818" gradientTransform="matrix(0 -82.5 -82.5 0 249499.3438 2677.7849)">
	<stop  offset="0" style="stop-color:#BBBDC0"/>
	<stop  offset="0.7" style="stop-color:#BBBDC0"/>
	<stop  offset="0.7" style="stop-color:#BBBDC0"/>
	<stop  offset="0.9" style="stop-color:#939598"/>
	<stop  offset="0.9" style="stop-color:#939598"/>
	<stop  offset="1" style="stop-color:#939598"/>
</linearGradient>
<path fill="url(#SVGID_6_)" d="M1334.962,1699.402h13.332c0.199,1.791,1.858,6.767,6.236,8.889
	c4.378,2.122,27.064,3.383,34.957,1.459c7.894-1.924,10.481-6.434,10.747-10.084h12.47c-0.464,3.185-3.659,9.789-18.109,12.273
	c-8.49,1.457-15.19,1.391-23.88,1.391C1362.026,1713.33,1334.962,1711.342,1334.962,1699.402L1334.962,1699.402z"/>
<path fill="#FFFFFF" d="M1374.507,1711.737c18.618,0,23.746-5.016,25.152-9.055c0-0.437-0.347-0.831-0.79-0.831
	s-0.627,0.389-0.804,0.789c-0.337,0.771-2.431,7.216-23.559,7.216c-21.128,0-23.222-6.445-23.56-7.216
	c-0.174-0.4-0.358-0.789-0.801-0.789c-0.444,0-0.791,0.394-0.791,0.831C1350.762,1706.72,1355.889,1711.737,1374.507,1711.737z"/>
<linearGradient id="SVGID_7_" gradientUnits="userSpaceOnUse" x1="11.3126" y1="3018.9053" x2="11.4819" y2="3018.9053" gradientTransform="matrix(0 -79.5 -79.5 0 241556.0938 2599.7852)">
	<stop  offset="0" style="stop-color:#FFFFFF"/>
	<stop  offset="0.5" style="stop-color:#EFF0F1"/>
	<stop  offset="0.5" style="stop-color:#EFF0F1"/>
	<stop  offset="1" style="stop-color:#BBBDC0"/>
</linearGradient>
<path fill="url(#SVGID_7_)" d="M1530.212,1700.425c0,0,0.018,0,0.018-0.509c0-5.588,8.077-9.242,15.765-9.496
	c1.415-0.047,3.119-0.062,4.557-0.062l38.884,0.008c0.7,0,1.105-0.787,1.53-2.113l0.15-0.465c0-0.696-0.556-0.79-1.255-0.79
	l-39.309-0.005c-2.789-0.042-5.441,0.079-8.462,0.155c-15.351,0.39-26.971,6.34-26.971,13.326L1530.212,1700.425L1530.212,1700.425z
	"/>
<linearGradient id="SVGID_8_" gradientUnits="userSpaceOnUse" x1="12.8659" y1="3020.1567" x2="13.0353" y2="3020.1567" gradientTransform="matrix(0 -74.25 -74.25 0 225798.9531 2667.6604)">
	<stop  offset="0" style="stop-color:#BBBDC0"/>
	<stop  offset="0.7" style="stop-color:#B7B9BC"/>
	<stop  offset="0.7" style="stop-color:#B7B9BC"/>
	<stop  offset="0.9" style="stop-color:#949698"/>
	<stop  offset="0.9" style="stop-color:#949698"/>
	<stop  offset="1" style="stop-color:#939598"/>
</linearGradient>
<path fill="url(#SVGID_8_)" d="M1515.146,1699.985h15.077c0.293,2.644,3.477,5.486,5.728,7.736c4.87,4.87,35.884,2.643,38.038,2.643
	s2.007-0.784,2.055-1.567c0.049-0.782,0-5.314,0-5.314c0-0.832-1.223-1.196-1.957-1.196h-21.345c-1.223,0-1.316-0.462-1.247-0.931
	c0.018-0.113,0.018-0.184,0.036-0.8c0.008-0.295,2.263-0.763,2.447-0.763l34.942,0.095c0.585,0.773,0.585,0.686,0.587,1.175
	c0.003,0.541,0,8.988,0,8.988c0,1.831-1.467,2.32-3.084,2.32c-1.614,0-42.394-0.293-46.506-0.293
	C1535.804,1712.077,1515.146,1711.931,1515.146,1699.985L1515.146,1699.985z"/>
<path fill="#FFFFFF" d="M1577.398,1709.846c0,0.987-0.192,1.22-1.722,1.22c-2.816,0-23.094-0.025-27.466-0.025
	c-4.373,0-11.349-0.752-14.961-4.475c-1.392-1.436,0.037-1.505,1.598-0.404c1.563,1.101,6.151,3.368,13.269,3.368
	c9.557,0,19.853-0.027,25.723-0.027c1.097,0,1.444-0.664,1.731-0.946C1575.858,1708.273,1577.398,1708.014,1577.398,1709.846
	L1577.398,1709.846z M1589.403,1700.609c0.003-0.843-0.667-1.732-1.662-1.732l-35.371-0.003c-0.701,0-0.857,0.958-0.857,1.706
	L1589.403,1700.609z"/>
<linearGradient id="SVGID_9_" gradientUnits="userSpaceOnUse" x1="10.6942" y1="3022.8889" x2="10.8635" y2="3022.8889" gradientTransform="matrix(0 -84.75 -84.75 0 257831.4688 2607.6599)">
	<stop  offset="0" style="stop-color:#FFFFFF"/>
	<stop  offset="0.5" style="stop-color:#EFF0F1"/>
	<stop  offset="0.5" style="stop-color:#EFF0F1"/>
	<stop  offset="1" style="stop-color:#BBBDC0"/>
</linearGradient>
<path fill="url(#SVGID_9_)" d="M1608.911,1700.121l-0.702-10.526c0-1.325,1.043-2.715,2.327-2.715l63.531,0.033
	c0.509,0,1.144,0.319,0.921,0.95l-0.638,1.474c-0.297,0.514-0.549,0.961-1.057,0.961l-50.458-0.01c-0.963,0-1.744,0.805-1.744,1.798
	v3.983c0,0.993,0.781,1.797,1.744,1.797l48.941-0.017c0.508,0,1.092,0.328,0.921,0.95l-0.347,1.003l-0.249,0.519
	c-0.302,0.574-0.591,0.949-1.099,0.949l-48.256,0.005L1608.911,1700.121L1608.911,1700.121z"/>
<linearGradient id="SVGID_10_" gradientUnits="userSpaceOnUse" x1="13.7706" y1="3028.0171" x2="13.9399" y2="3028.0171" gradientTransform="matrix(0 -69 -69 0 210575.0781 2662.0359)">
	<stop  offset="0" style="stop-color:#BBBDC0"/>
	<stop  offset="0.7" style="stop-color:#B7B9BC"/>
	<stop  offset="0.7" style="stop-color:#B7B9BC"/>
	<stop  offset="0.9" style="stop-color:#949698"/>
	<stop  offset="0.9" style="stop-color:#949698"/>
	<stop  offset="1" style="stop-color:#939598"/>
</linearGradient>
<path fill="url(#SVGID_10_)" d="M1608.911,1700.121h63.313c-0.509,1.114-0.706,1.22-2.103,1.22h-47.031
	c-2.041,0-2.206,0.513-2.206,1.599v4.897c0,1.45,1.669,1.773,3.493,1.773c1.826,0,51.233-0.669,51.233-0.669
	c0.194,0.196-0.234,1.333-0.673,2.06c-0.472,0.782-0.423,0.864-1.712,0.864h-61.624c-2.471,0-3.545-0.107-3.437-2.685
	C1608.273,1706.603,1608.911,1700.121,1608.911,1700.121L1608.911,1700.121z"/>
<path fill="#FFFFFF" d="M1674.901,1708.596l-50.692-0.015c-1.073-0.011-1.419-0.697-1.704-0.978
	c-0.29-0.283-1.829-0.542-1.829,1.289c0,0.987,0.192,1.715,1.723,1.715c1.525,0,8.179-0.009,14.649-0.015l35.951-0.013
	c0.608,0,1.553,0.067,1.823-0.202c0.271-0.271,0.354-0.473,0.768-1.033C1675.868,1708.812,1675.407,1708.596,1674.901,1708.596
	L1674.901,1708.596z"/>
</svg>
