<svg width="157" height="40" viewBox="0 0 157 40" fill="none" xmlns="http://www.w3.org/2000/svg">
<g clip-path="url(#clip0_665_1049)">
<path d="M133.157 14.9482C129.16 14.9482 127.473 15.7312 126.554 16.6493C125.663 17.5406 125.286 18.6741 125.286 20.0246C125.286 21.375 125.665 22.5085 126.554 23.3999C127.473 24.318 129.16 25.1009 133.157 25.1009C137.153 25.1009 138.842 24.318 139.76 23.3999C140.651 22.5085 141.029 21.375 141.029 20.0246C141.029 18.6741 140.65 17.5406 139.76 16.6493C138.842 15.7312 137.154 14.9482 133.157 14.9482ZM137.572 21.9781C137.018 22.5323 135.857 22.9468 133.157 22.9468C130.456 22.9468 129.295 22.5323 128.741 21.9781C128.336 21.5741 128.025 21.0377 128.025 20.0246C128.025 19.0114 128.336 18.4766 128.741 18.071C129.295 17.5169 130.456 17.1024 133.157 17.1024C135.857 17.1024 137.019 17.5169 137.572 18.071C137.976 18.4766 138.288 19.0114 138.288 20.0246C138.288 21.0377 137.977 21.5726 137.572 21.9781Z" fill="#001E3F"/>
<path d="M100.322 15.2185H97.2108L90.4795 24.8319H93.5904L94.6333 23.3433H102.899L103.942 24.8319H107.053L100.322 15.2185ZM101.42 21.2308H96.1114L98.7662 17.4395L101.421 21.2308H101.42Z" fill="#001E3F"/>
<path d="M88.8662 24.8304V15.2185H86.25V22.391L78.5575 15.2185H77.5384H74.9222V24.8319H77.5384V17.6579L85.2309 24.8319H86.25H88.8662V24.8304Z" fill="#001E3F"/>
<path d="M119.994 22.391L112.302 15.2185H108.666V24.8319H111.282V17.6579L118.975 24.8319H119.994H122.61V15.2185H119.994V22.391Z" fill="#001E3F"/>
<path d="M156.702 24.8319L151.173 20.0244L156.701 15.2185H152.863L149.253 18.3561L145.643 15.2185H141.804L147.334 20.0244L141.804 24.8319H145.643L149.252 21.6928L152.862 24.8319H156.702Z" fill="#001E3F"/>
<path d="M52.7599 24.612C53.1685 25.1126 53.5696 25.6207 53.9573 26.1407C54.1133 26.3531 54.2678 26.567 54.4208 26.781C55.2483 26.4497 56.0595 26.0887 56.8454 25.689C56.9404 25.64 57.0355 25.5895 57.1291 25.5405C57.0623 25.4573 56.9969 25.3726 56.93 25.2894C56.3744 24.6046 55.7802 23.9435 55.1592 23.3046C54.9319 23.4384 54.7046 23.5721 54.4743 23.7013C53.9098 24.0192 53.3363 24.3193 52.7584 24.612M37.7568 30.0211C37.0927 30.1919 36.4272 30.3568 35.7601 30.5143C36.4093 30.4787 37.0585 30.4296 37.7063 30.3776C38.4416 30.3182 39.177 30.2439 39.9109 30.1652C42.8435 29.8354 45.7583 29.3362 48.6106 28.6231C50.0368 28.2666 51.4467 27.8551 52.8268 27.3752C52.9768 27.3232 53.1254 27.2697 53.274 27.2163C53.1848 27.0855 53.0957 26.9548 53.0051 26.8255C52.601 26.2447 52.1805 25.6727 51.7467 25.1082C51.3159 25.3132 50.8851 25.5152 50.4498 25.7098C49.083 26.3189 47.6955 26.8746 46.2946 27.3871C44.8951 27.9041 43.4793 28.3706 42.0561 28.8103C40.6329 29.2515 39.1978 29.6497 37.7568 30.0196M9.12613 26.8255C9.03551 26.9548 8.94637 27.0855 8.85723 27.2163C9.00579 27.2697 9.15436 27.3232 9.3044 27.3752C10.686 27.8551 12.0959 28.2651 13.5206 28.6231C16.3729 29.3347 19.2862 29.8339 22.2203 30.1652C22.9542 30.2454 23.6895 30.3182 24.4249 30.3776C25.0726 30.4311 25.7219 30.4787 26.3711 30.5143C25.704 30.3568 25.0385 30.1934 24.3729 30.0211C22.9319 29.6512 21.4968 29.2515 20.0736 28.8118C18.6504 28.3721 17.2346 27.9056 15.8351 27.3886C14.4342 26.8746 13.0466 26.3204 11.6799 25.7113C11.2446 25.5167 10.8138 25.3147 10.383 25.1097C9.95064 25.6742 9.53021 26.2447 9.12613 26.827M5.19967 25.2894C5.13281 25.3726 5.06745 25.4573 5.00059 25.5405C5.09567 25.591 5.18927 25.64 5.28434 25.689C6.07172 26.0887 6.88286 26.4512 7.70886 26.781C7.86188 26.5656 8.01638 26.3516 8.17237 26.1407C8.56011 25.6207 8.96123 25.1126 9.36977 24.6105C8.79335 24.3193 8.21991 24.0177 7.65389 23.6998C7.42511 23.5706 7.19632 23.4369 6.96902 23.3032C6.34804 23.942 5.7538 24.6031 5.19818 25.2879M2.12297 20.2799C2.22102 20.1849 2.32056 20.0928 2.42009 19.9992C2.32056 19.9071 2.22102 19.815 2.12297 19.7184C1.58815 19.194 1.0771 18.6339 0.626962 18.0099C0.582394 18.0813 0.539311 18.1526 0.497714 18.2239C0.179794 18.7884 -0.00293554 19.393 3.56805e-05 20.0007C-0.00293554 20.6083 0.179794 21.2129 0.4992 21.7745C0.540797 21.8458 0.58388 21.9171 0.628448 21.9884C1.07859 21.3644 1.58815 20.8044 2.12446 20.2799M4.20282 24.4619C4.74061 23.8261 5.3096 23.2244 5.89642 22.645C5.20115 22.2008 4.51926 21.7299 3.86113 21.2203C3.71554 21.1074 3.56995 20.9916 3.42733 20.8757C3.30403 20.9916 3.18369 21.1104 3.06485 21.2307C2.81526 21.4833 2.57608 21.7448 2.3473 22.0107C2.23588 22.1459 2.12297 22.2796 2.01749 22.4192L1.85853 22.6257L1.70849 22.8367C1.64758 22.9243 1.58815 23.015 1.53021 23.1041C1.60598 23.1799 1.68174 23.2556 1.76048 23.3284L1.95064 23.5037L2.14971 23.6731C2.28044 23.7875 2.42009 23.8944 2.55677 24.0029C2.83606 24.2168 3.12427 24.4218 3.42139 24.6179C3.56252 24.71 3.70514 24.8007 3.84925 24.8898C3.96512 24.7457 4.08249 24.6031 4.20134 24.4619M23.8381 8.95962C24.7592 8.89574 27.1079 8.75609 27.6858 8.59713C27.3664 8.55404 27.047 8.51096 26.7276 8.46937C25.9952 8.37429 25.2613 8.29406 24.5274 8.2183C21.5904 7.93158 18.6355 7.81421 15.697 7.9182C14.2277 7.97169 12.7644 8.08014 11.3129 8.26287C9.86299 8.44262 8.42641 8.70409 7.03142 9.07549C6.92743 9.10372 6.82492 9.13343 6.72241 9.16166C6.76995 9.25822 6.81601 9.3533 6.86503 9.44838C7.26763 10.2343 7.71034 11.0038 8.18574 11.757C8.43532 11.6738 8.68639 11.5906 8.93746 11.5119C10.374 11.0632 11.8284 10.6978 13.2918 10.3843C14.7551 10.0723 16.2273 9.8183 17.704 9.60734C19.1807 9.39193 20.6634 9.23 22.146 9.09629C22.709 9.04578 23.2736 8.99973 23.8381 8.95962ZM55.2647 9.44987C55.3137 9.35479 55.3597 9.25822 55.4073 9.16314C55.3048 9.13492 55.2023 9.10521 55.0983 9.07698C53.7033 8.70558 52.2667 8.44411 50.8168 8.26435C49.3668 8.08162 47.902 7.97317 46.4327 7.91969C43.4942 7.8157 40.5408 7.93306 37.6023 8.21978C36.8684 8.29406 36.1345 8.37577 35.4021 8.47085C35.0827 8.51245 34.7633 8.55405 34.4439 8.59861C35.0218 8.75906 37.3705 8.89722 38.2916 8.9611C38.8561 9.00121 39.4207 9.04578 39.9837 9.09778C41.4663 9.23148 42.949 9.39341 44.4257 9.60883C45.9024 9.81978 47.3746 10.0738 48.8394 10.3858C50.3027 10.6993 51.7571 11.0662 53.1937 11.5134C53.4448 11.5921 53.6959 11.6753 53.9454 11.7585C54.4208 11.0053 54.8636 10.2358 55.2647 9.44987ZM59.7824 22.0107C59.5551 21.7433 59.3144 21.4833 59.0649 21.2307C58.946 21.1104 58.8257 20.9916 58.7024 20.8757C58.5583 20.9916 58.4142 21.1074 58.2686 21.2203C57.6104 21.7299 56.9285 22.2008 56.2333 22.645C56.8216 23.2244 57.3891 23.8261 57.9269 24.4619C58.0457 24.6031 58.1631 24.7457 58.2804 24.8898C58.4246 24.8007 58.5687 24.7115 58.7083 24.6179C59.0054 24.4233 59.2936 24.2168 59.5729 24.0029C59.7096 23.8944 59.8493 23.786 59.98 23.6731L60.1791 23.5037L60.3692 23.3284C60.4465 23.2541 60.5237 23.1799 60.598 23.1041C60.5401 23.015 60.4806 22.9258 60.4197 22.8367L60.2697 22.6257L60.1107 22.4192C60.0052 22.2811 59.8923 22.1459 59.7809 22.0107M62.1297 20.0007C62.1326 19.393 61.9499 18.7884 61.6305 18.2268C61.5904 18.1555 61.5473 18.0842 61.5013 18.0129C61.0511 18.6369 60.5415 19.1969 60.0052 19.7214C59.9072 19.8164 59.8077 19.9085 59.7081 20.0007C59.8077 20.0928 59.9072 20.1849 60.0052 20.2814C60.5401 20.8059 61.0511 21.3659 61.5013 21.9899C61.5458 21.9186 61.5889 21.8473 61.6305 21.776C61.9499 21.2144 62.1326 20.6098 62.1297 20.0021" fill="#657CCD"/>
<path d="M4.73905 32.0281C4.78956 31.9018 4.84305 31.7771 4.89653 31.6508C4.76728 31.6062 4.63952 31.5631 4.51027 31.5156C3.80906 31.2541 3.1138 30.9511 2.44973 30.5633C2.43785 30.6465 2.42745 30.7282 2.42002 30.8114C2.35614 31.4547 2.43636 32.0816 2.68594 32.6357C2.93107 33.1913 3.34407 33.6697 3.86403 34.053C3.9294 34.102 4.00071 34.1451 4.06904 34.1912C4.22652 33.4409 4.46422 32.7219 4.73905 32.0281ZM12.4226 17.3875C13.831 16.3668 20.2429 12.3631 24.8705 10.5403C18.6622 12.0957 12.9262 14.7342 11.0544 15.7459C11.301 16.0534 11.5506 16.3594 11.8046 16.6625C12.0081 16.9061 12.2146 17.1483 12.4241 17.3875M27.1183 32.8823C27.7422 32.6818 28.3632 32.4753 28.9827 32.2614C28.277 32.0519 25.9179 32.3639 24.6076 32.5199C23.1279 32.6966 21.6453 32.8467 20.1567 32.9433C18.6681 33.0443 17.1751 33.1007 15.6791 33.1007C14.1831 33.0978 12.6841 33.0428 11.1851 32.9031C9.68762 32.759 8.19012 32.5421 6.71046 32.1797C6.5307 32.1351 6.35242 32.089 6.17267 32.04C6.1073 32.196 6.0449 32.3535 5.98548 32.5124C5.8592 32.8452 5.74778 33.181 5.64825 33.5167C5.60071 33.6861 5.55317 33.8539 5.51306 34.0233L5.45215 34.2773L5.40015 34.5314C5.38084 34.6368 5.36301 34.7423 5.34667 34.8478C5.4462 34.8864 5.54722 34.9236 5.64825 34.9592L5.89337 35.0424L6.14295 35.1167C6.30934 35.1672 6.48019 35.2088 6.64955 35.2534C6.99124 35.3351 7.33738 35.4064 7.68947 35.4628C8.39068 35.5787 9.10674 35.6456 9.82726 35.6827C11.2683 35.7555 12.7287 35.7139 14.1846 35.5876C15.6404 35.4643 17.0963 35.2667 18.5433 35.0127C21.4388 34.5031 24.303 33.7737 27.1183 32.8823ZM50.3264 16.6625C50.5805 16.3594 50.8301 16.0534 51.0767 15.7459C49.2063 14.7342 43.4689 12.0957 37.2605 10.5403C41.8882 12.3631 48.3001 16.3668 49.7069 17.3875C49.9149 17.1468 50.1214 16.9061 50.3264 16.6625ZM56.4813 34.9592C56.5823 34.9236 56.6819 34.8864 56.7829 34.8478C56.7665 34.7423 56.7487 34.6368 56.7294 34.5314L56.6789 34.2773L56.618 34.0233C56.5779 33.8539 56.5303 33.6861 56.4828 33.5167C56.3833 33.1795 56.2704 32.8452 56.1441 32.5124C56.0847 32.355 56.0223 32.1975 55.9569 32.04C55.7786 32.0875 55.5989 32.1351 55.4191 32.1797C53.9394 32.5421 52.4419 32.7576 50.9444 32.9031C49.447 33.0428 47.948 33.0992 46.452 33.1007C44.956 33.1007 43.4629 33.0443 41.9743 32.9433C40.4858 32.8467 39.0016 32.6966 37.5235 32.5199C36.2132 32.3639 33.854 32.0519 33.1483 32.2614C33.7678 32.4753 34.3888 32.6818 35.0128 32.8823C37.8265 33.7737 40.6923 34.5031 43.5877 35.0127C45.0347 35.2667 46.4906 35.4643 47.9465 35.5876C49.4024 35.7139 50.8627 35.7555 52.3038 35.6827C53.0243 35.6456 53.7404 35.5787 54.4416 35.4628C54.7922 35.4049 55.1398 35.3351 55.4815 35.2534C55.6509 35.2103 55.8217 35.1672 55.9881 35.1167L56.2377 35.0424L56.4828 34.9592H56.4813ZM59.7095 30.8114C59.7021 30.7297 59.6917 30.6465 59.6798 30.5633C59.0158 30.9511 58.3205 31.2541 57.6193 31.5156C57.4915 31.5631 57.3623 31.6062 57.233 31.6508C57.2865 31.7756 57.34 31.9004 57.3905 32.0281C57.6653 32.7219 57.9045 33.4409 58.0605 34.1912C58.1288 34.1451 58.2002 34.102 58.267 34.053C58.787 33.6697 59.2 33.1913 59.4451 32.6357C59.6947 32.0816 59.7734 31.4547 59.711 30.8114" fill="#4159BC"/>
<path d="M53.2441 20.0008C53.7478 20.4064 54.2469 20.8194 54.7327 21.2487C54.9288 21.4226 55.1234 21.5979 55.3166 21.7761C56.0564 21.2799 56.7769 20.7615 57.4648 20.2058C57.548 20.139 57.6297 20.0692 57.7114 20.0008C57.6297 19.9325 57.548 19.8641 57.4648 19.7958C56.7784 19.2417 56.0579 18.7217 55.3166 18.2255C55.1234 18.4038 54.9288 18.5791 54.7327 18.7529C54.2455 19.1808 53.7478 19.5953 53.2441 19.9993M50.5255 22.045C50.7171 22.2515 50.9073 22.4595 51.096 22.669C51.4139 23.024 51.7259 23.3836 52.0364 23.746C52.6603 23.4073 53.2768 23.0552 53.883 22.6898C54.0182 22.6081 54.1504 22.5234 54.2841 22.4402C54.1712 22.3317 54.0568 22.2233 53.9424 22.1163C53.4254 21.632 52.8965 21.1596 52.3558 20.6976C51.9784 20.9888 51.5966 21.2755 51.2118 21.5563C50.9845 21.7226 50.7543 21.8846 50.524 22.0465M49.7069 22.6125C48.3 23.6331 41.8867 27.6369 37.259 29.4597C43.4674 27.9043 49.2033 25.2658 51.0752 24.2541C50.8285 23.9466 50.579 23.6406 50.3249 23.3375C50.1214 23.0939 49.9134 22.8532 49.7054 22.6125M11.8031 23.3375C11.5491 23.6406 11.2995 23.9466 11.0529 24.2541C12.9233 25.2658 18.6607 27.9043 24.869 29.4597C20.2414 27.6369 13.8295 23.6346 12.4226 22.6125C12.2146 22.8532 12.0081 23.0939 11.8031 23.3375ZM8.18565 22.1148C8.07126 22.2218 7.95687 22.3303 7.84396 22.4387C7.97766 22.5219 8.10988 22.6081 8.24507 22.6883C8.8512 23.0552 9.46773 23.4058 10.0917 23.7446C10.4007 23.3821 10.7142 23.0226 11.0321 22.6675C11.2207 22.458 11.4124 22.2515 11.604 22.0435C11.3738 21.8816 11.1435 21.7182 10.9147 21.5533C10.5299 21.2725 10.1496 20.9858 9.77079 20.6946C9.23003 21.1566 8.70116 21.6291 8.18416 22.1134M4.66624 19.7958C4.58305 19.8641 4.50134 19.9325 4.41963 20.0008C4.50134 20.0692 4.58305 20.1375 4.66624 20.2058C5.35259 20.76 6.07311 21.2799 6.81443 21.7761C7.00756 21.5993 7.20218 21.4226 7.39828 21.2487C7.88556 20.8209 8.38323 20.4064 8.88686 20.0008C8.38323 19.5953 7.88407 19.1823 7.39828 18.7544C7.20218 18.5806 7.00756 18.4053 6.81443 18.227C6.0746 18.7232 5.35408 19.2417 4.66624 19.7973M2.69781 14.2575C2.81369 14.1847 2.92957 14.1148 3.04693 14.045C2.96819 13.9336 2.88946 13.8222 2.81369 13.7093C2.3992 13.0853 2.01592 12.4317 1.70543 11.7275C1.64749 11.7869 1.58955 11.8478 1.53458 11.9102C1.10524 12.393 0.80069 12.9472 0.677384 13.5414C0.548137 14.1342 0.601618 14.7641 0.797719 15.3806C0.822974 15.4593 0.849715 15.5381 0.879427 15.6168C1.44842 15.0998 2.06494 14.6586 2.69781 14.2575ZM5.89633 17.355C5.30803 16.7756 4.74052 16.1739 4.20273 15.5381C4.08388 15.3969 3.96652 15.2543 3.84916 15.1102C3.70505 15.1993 3.56244 15.29 3.4213 15.3821C3.12418 15.5767 2.83597 15.7832 2.55668 15.9971C2.42 16.1056 2.28036 16.214 2.14962 16.3269L1.95204 16.4963L1.76039 16.6716C1.68314 16.7459 1.60589 16.8201 1.53161 16.8959C1.58955 16.985 1.64897 17.0742 1.70988 17.1633L1.85993 17.3743L2.01889 17.5808C2.12437 17.7189 2.23727 17.8541 2.34869 17.9878C2.57748 18.2552 2.81666 18.5152 3.06624 18.7678C3.18509 18.8881 3.30543 19.0055 3.42873 19.1228C3.57284 19.007 3.71694 18.8911 3.86253 18.7767C4.52065 18.2671 5.20106 17.7962 5.89781 17.352M28.9827 7.73861C28.3632 7.52469 27.7422 7.31819 27.1182 7.11763C24.3045 6.22627 21.4388 5.49683 18.5433 4.98727C17.0963 4.73323 15.6404 4.53564 14.1845 4.41234C12.7286 4.28606 11.2698 4.24446 9.82725 4.31726C9.10673 4.3544 8.39066 4.42125 7.68946 4.53713C7.33885 4.59507 6.99122 4.66489 6.65102 4.7466C6.48166 4.78968 6.31081 4.83276 6.14442 4.88328L5.89484 4.95756L5.64972 5.04075C5.54869 5.0764 5.44916 5.11355 5.34962 5.15217C5.36596 5.25765 5.38379 5.36313 5.4031 5.46861L5.4551 5.72264L5.51601 5.97668C5.55464 6.14604 5.60366 6.31392 5.6512 6.48328C5.75074 6.82051 5.86364 7.15626 5.98843 7.48903C6.04786 7.64651 6.11025 7.80398 6.17562 7.95997C6.35389 7.91243 6.53365 7.86489 6.71193 7.82181C8.19159 7.45932 9.68909 7.24242 11.1866 7.09832C12.6841 6.95867 14.1831 6.9037 15.6805 6.90073C17.1766 6.90073 18.6696 6.95718 20.1582 7.05821C21.6467 7.15477 23.1309 7.30482 24.609 7.4816C25.9194 7.63759 28.2785 7.94957 28.9842 7.7401M56.7294 5.46861C56.7487 5.36313 56.7665 5.25765 56.7829 5.15217C56.6833 5.11355 56.5838 5.0764 56.4813 5.04075L56.2362 4.95756L55.9866 4.88328C55.8202 4.83276 55.6494 4.79117 55.48 4.7466C55.1383 4.66489 54.7922 4.59507 54.4415 4.53713C53.7403 4.42125 53.0243 4.3544 52.3038 4.31726C50.8627 4.24446 49.4024 4.28606 47.9465 4.41234C46.4906 4.53564 45.0347 4.73323 43.5877 4.98727C40.6922 5.49683 37.8265 6.22627 35.0128 7.11763C34.3888 7.31819 33.7678 7.52469 33.1483 7.73861C33.854 7.94809 36.2131 7.63611 37.5234 7.48012C39.0016 7.30333 40.4857 7.15329 41.9743 7.05672C43.4629 6.9557 44.9559 6.89925 46.4519 6.89925C47.948 6.90222 49.4469 6.95718 50.9459 7.09683C52.4434 7.24094 53.9409 7.45783 55.4206 7.82032C55.6003 7.86489 55.7786 7.91095 55.9569 7.95997C56.0222 7.80398 56.0846 7.64651 56.1441 7.48755C56.2689 7.15477 56.3818 6.81902 56.4813 6.48179C56.5288 6.31243 56.5764 6.14456 56.6165 5.9752L56.6774 5.72116L56.7294 5.46712V5.46861ZM59.5728 15.9971C59.2935 15.7832 59.0053 15.5782 58.7082 15.3836C58.5671 15.29 58.4245 15.1993 58.2804 15.1117C58.1645 15.2558 58.0456 15.3984 57.9268 15.5395C57.389 16.1754 56.82 16.7771 56.2332 17.3564C56.9285 17.8006 57.6104 18.2716 58.2685 18.7811C58.4141 18.894 58.5597 19.0099 58.7023 19.1273C58.8256 19.0099 58.9459 18.8926 59.0648 18.7722C59.3143 18.5197 59.5535 18.2582 59.7823 17.9908C59.8937 17.8556 60.0066 17.7219 60.1121 17.5837L60.2711 17.3772L60.4211 17.1663C60.482 17.0786 60.5415 16.9895 60.5994 16.8989C60.5236 16.8231 60.4479 16.7488 60.3706 16.6745L60.179 16.4992L59.9814 16.3299C59.8492 16.2155 59.711 16.1085 59.5743 15.9986M61.4507 13.5414C61.3273 12.9472 61.0228 12.393 60.5935 11.9102C60.5385 11.8478 60.482 11.7869 60.4226 11.7275C60.1121 12.4317 59.7288 13.0853 59.3143 13.7093C59.2386 13.8237 59.1598 13.9336 59.0811 14.045C59.1985 14.1148 59.3143 14.1847 59.4302 14.2575C60.0631 14.6586 60.6781 15.0998 61.2486 15.6168C61.2783 15.5381 61.3051 15.4593 61.3303 15.3806C61.5264 14.7641 61.5784 14.1342 61.4507 13.5414Z" fill="#778FD5"/>
<path d="M20.8758 13.5679C21.4121 13.1416 21.9544 12.7211 22.4996 12.3052C21.9202 12.6023 21.3482 12.9098 20.7778 13.2218C20.13 13.5754 19.4882 13.9408 18.8509 14.3122C16.8572 15.4829 14.9185 16.7457 13.057 18.1065C13.4389 18.5328 13.8266 18.9562 14.2218 19.3737C15.2661 18.3575 16.3447 17.3785 17.4396 16.4203C18.5597 15.4383 19.7081 14.4905 20.8758 13.5665M29.883 33.4216C30.045 33.3295 30.2039 33.2344 30.3659 33.1423C29.0868 33.0428 26.2968 33.9445 25.7664 34.1169C24.878 34.4036 23.9852 34.6769 23.0849 34.9295C21.6498 35.3366 20.2013 35.7035 18.738 36.014C17.2747 36.3215 15.7965 36.58 14.302 36.7538C12.8075 36.9232 11.2981 37.0227 9.77534 36.9767C9.01471 36.9514 8.25111 36.8964 7.48602 36.785C6.74618 36.6766 6.00338 36.5236 5.27246 36.2829C5.2784 36.3661 5.28583 36.4493 5.29474 36.531C5.36605 37.1728 5.57404 37.77 5.93356 38.2602C6.28862 38.7535 6.79075 39.1353 7.38054 39.4012C7.67469 39.5349 7.98815 39.6433 8.31202 39.7295C8.63736 39.8157 8.9746 39.8736 9.31629 39.9182L9.5733 39.9479L9.83328 39.9687C10.0071 39.9835 10.1824 39.9895 10.3562 39.9969C10.7068 40.0073 11.0619 40.0029 11.4169 39.9865C12.1271 39.9553 12.8416 39.8706 13.5547 39.7577C14.9794 39.5304 16.3982 39.1858 17.7961 38.7594C19.1956 38.336 20.5772 37.8398 21.941 37.2901C24.6671 36.1893 27.3174 34.8805 29.8845 33.4246M47.9079 19.3737C48.3016 18.9562 48.6894 18.5343 49.0727 18.1065C47.2127 16.7442 45.2725 15.4829 43.2788 14.3122C42.64 13.9408 41.9997 13.5754 41.3519 13.2218C40.7815 12.9098 40.208 12.6023 39.6301 12.3052C40.1753 12.7211 40.7176 13.1416 41.2539 13.5679C42.4201 14.492 43.5685 15.4398 44.6886 16.4218C45.7835 17.38 46.8621 18.359 47.9065 19.3752M56.8572 36.2829C56.1263 36.5236 55.3835 36.6751 54.6437 36.785C53.8801 36.8964 53.1165 36.9514 52.3544 36.9767C50.8316 37.0227 49.3222 36.9232 47.8277 36.7538C46.3332 36.58 44.855 36.3215 43.3917 36.014C41.9284 35.7035 40.4799 35.3366 39.0448 34.9295C38.146 34.6755 37.2517 34.4036 36.3633 34.1169C35.8329 33.946 33.0444 33.0428 31.7638 33.1423C31.9243 33.2359 32.0847 33.3295 32.2467 33.4216C34.8138 34.879 37.4641 36.1863 40.1917 37.2872C41.5555 37.8368 42.9371 38.333 44.3365 38.7564C45.7345 39.1828 47.1533 39.5275 48.5779 39.7548C49.291 39.8677 50.0041 39.9523 50.7157 39.9835C51.0708 39.9999 51.4244 40.0043 51.7765 39.9939C51.9518 39.9865 52.1271 39.9806 52.3009 39.9657L52.5609 39.9449L52.8179 39.9152C53.1596 39.8706 53.4968 39.8127 53.8222 39.7265C54.146 39.6404 54.4595 39.5319 54.7521 39.3982C55.3404 39.1308 55.8441 38.7505 56.1991 38.2573C56.5586 37.767 56.7666 37.1713 56.8379 36.528C56.8468 36.4463 56.8543 36.3631 56.8602 36.2799" fill="#334CB7"/>
<path d="M52.7599 15.3894C53.3378 15.6806 53.9097 15.9822 54.4758 16.3001C54.7045 16.4294 54.9333 16.5631 55.1606 16.6968C55.7816 16.058 56.3744 15.3969 56.9315 14.712C56.9983 14.6288 57.0637 14.5441 57.1305 14.4609C57.0355 14.4119 56.9419 14.3614 56.8468 14.3124C56.0594 13.9127 55.2483 13.5502 54.4223 13.2204C54.2693 13.4359 54.1147 13.6498 53.9588 13.8607C53.571 14.3807 53.1714 14.8888 52.7614 15.3894M51.2134 18.4453C51.5981 18.7261 51.9784 19.0128 52.3573 19.304C52.898 18.842 53.4269 18.3696 53.9439 17.8867C54.0583 17.7798 54.1727 17.6713 54.2856 17.5629C54.1519 17.4797 54.0197 17.395 53.883 17.3133C53.2769 16.9463 52.6603 16.5957 52.0364 16.257C51.7274 16.6195 51.4139 16.979 51.096 17.3341C50.9073 17.5436 50.7157 17.7501 50.524 17.958C50.7543 18.12 50.9846 18.2834 51.2134 18.4483M48.5452 20.0008C48.9835 20.4346 49.4158 20.8743 49.8436 21.32C50.0962 21.1283 50.3487 20.9367 50.5998 20.7406C50.9103 20.4969 51.2178 20.2503 51.5238 20.0008C51.2178 19.7512 50.9103 19.5031 50.5998 19.2609C50.3502 19.0648 50.0962 18.8717 49.8436 18.68C49.4173 19.1257 48.9849 19.567 48.5467 20.0008M41.2538 26.432C40.7175 26.8583 40.1753 27.2787 39.6301 27.6947C40.2095 27.3976 40.7814 27.0901 41.3519 26.7781C41.9996 26.4245 42.6414 26.0576 43.2787 25.6877C45.2724 24.517 47.2111 23.2542 49.0726 21.8934C48.6908 21.4656 48.3031 21.0437 47.9079 20.6262C46.8635 21.6424 45.7849 22.6214 44.6901 23.5796C43.5699 24.5616 42.4215 25.5094 41.2538 26.4334M14.2217 20.6262C13.828 21.0437 13.4403 21.4656 13.057 21.8934C14.9185 23.2542 16.8572 24.517 18.8509 25.6877C19.4882 26.0591 20.13 26.4245 20.7777 26.7781C21.3482 27.0901 21.9216 27.3976 22.4995 27.6947C21.9543 27.2787 21.4121 26.8583 20.8757 26.432C19.7095 25.5079 18.5612 24.5601 17.441 23.5781C16.3461 22.6199 15.2676 21.6409 14.2217 20.6247M11.5298 19.2594C11.2193 19.5031 10.9118 19.7497 10.6057 19.9993C10.9103 20.2489 11.2193 20.4955 11.5298 20.7391C11.7794 20.9352 12.0334 21.1283 12.286 21.32C12.7123 20.8743 13.1446 20.4331 13.5829 19.9993C13.1446 19.5655 12.7123 19.1257 12.2845 18.68C12.0304 18.8717 11.7794 19.0633 11.5283 19.2594M8.24659 17.3118C8.1114 17.3935 7.97918 17.4782 7.84548 17.5614C7.95839 17.6698 8.07278 17.7783 8.18717 17.8852C8.70416 18.3696 9.23452 18.842 9.7738 19.304C10.1526 19.0128 10.5329 18.7261 10.9177 18.4453C11.145 18.2804 11.3753 18.117 11.6056 17.9551C11.4139 17.7486 11.2238 17.5406 11.0351 17.3311C10.7172 16.9761 10.4052 16.6165 10.0947 16.2541C9.47073 16.5928 8.85421 16.9449 8.24808 17.3103M5.28429 14.3124C5.18921 14.3599 5.09562 14.4104 5.00054 14.4609C5.06591 14.5441 5.13276 14.6288 5.19961 14.712C5.75671 15.3969 6.34947 16.058 6.97046 16.6968C7.19775 16.5631 7.42505 16.4294 7.65532 16.3001C8.21985 15.9822 8.7933 15.6806 9.3712 15.3894C8.96266 14.8888 8.56154 14.3807 8.1738 13.8607C8.01781 13.6498 7.86331 13.4359 7.71029 13.2204C6.8828 13.5517 6.07166 13.9142 5.28578 14.3138M4.51177 8.48432C4.63954 8.43678 4.76878 8.3937 4.89803 8.34913C4.84455 8.22434 4.79107 8.09955 4.74056 7.97179C4.46572 7.27801 4.22654 6.55897 4.07055 5.80874C4.00221 5.85479 3.9309 5.89788 3.86405 5.9469C3.34409 6.33019 2.93109 6.80856 2.68596 7.36417C2.43638 7.9183 2.35764 8.54523 2.42004 9.1885C2.42895 9.27021 2.43786 9.3534 2.45123 9.4366C3.1153 9.04885 3.81057 8.74579 4.51177 8.48432ZM5.46108 9.55842C5.30063 9.61487 5.14167 9.67429 4.98568 9.7352C4.65439 9.86445 4.32904 10.0056 4.01261 10.1556C3.85513 10.2329 3.69766 10.3101 3.54613 10.3948L3.31734 10.5196L3.0945 10.6518C3.0024 10.7083 2.91474 10.7677 2.82412 10.8256C2.86126 10.9252 2.90137 11.0232 2.94149 11.1213L3.04548 11.359L3.1569 11.5952C3.23118 11.7527 3.31289 11.9072 3.3946 12.0632C3.56247 12.3722 3.74223 12.6767 3.93387 12.9753C4.02449 13.1179 4.11957 13.2591 4.21465 13.3987C4.37955 13.314 4.54446 13.2323 4.71084 13.1506C5.46108 12.7896 6.22468 12.4702 6.9972 12.1805C6.5426 11.4912 6.11177 10.784 5.71809 10.0516C5.63044 9.88822 5.54576 9.7248 5.46256 9.5599M30.3658 6.85758C30.2054 6.76399 30.0449 6.67039 29.883 6.57829C27.3159 5.1209 24.6655 3.81208 21.938 2.71273C20.5742 2.16306 19.1926 1.66835 17.7931 1.24347C16.3952 0.818584 14.9764 0.472437 13.5517 0.245139C12.8401 0.132233 12.1255 0.0475533 11.4154 0.0163556C11.0603 1.38746e-05 10.7068 -0.00444295 10.3547 0.00595631C10.1794 0.0133843 10.0041 0.0193268 9.83025 0.0341829L9.57027 0.0549814L9.31326 0.0846935C8.97157 0.129262 8.63434 0.187201 8.30899 0.273366C7.98513 0.359531 7.67166 0.46798 7.379 0.601685C6.7907 0.867609 6.28708 1.2509 5.93202 1.74263C5.5725 2.23288 5.36451 2.82861 5.2932 3.47188C5.28429 3.55359 5.27686 3.63678 5.27092 3.71998C6.00184 3.47931 6.74464 3.32778 7.48448 3.21784C8.24808 3.10642 9.01168 3.05145 9.7738 3.0262C11.2965 2.98014 12.8059 3.07968 14.3004 3.24904C15.795 3.42286 17.2731 3.68135 18.7365 3.98887C20.1998 4.29936 21.6483 4.66482 23.0848 5.07337C23.9836 5.32592 24.878 5.59927 25.7664 5.88599C26.2967 6.05684 29.0852 6.96009 30.3658 6.86055M54.6436 3.21487C55.3835 3.32332 56.1263 3.47634 56.8572 3.71701C56.8512 3.63381 56.8438 3.55062 56.8349 3.46891C56.7636 2.82713 56.5556 2.22991 56.1961 1.73966C55.841 1.24644 55.3374 0.864638 54.7491 0.598714C54.455 0.465009 54.143 0.35656 53.8176 0.270395C53.4938 0.185715 53.155 0.126291 52.8134 0.0817223L52.5563 0.0520102L52.2964 0.0312116C52.1225 0.0163556 51.9472 0.0104131 51.7719 0.00298509C51.4213 -0.00592856 51.0663 -0.00295734 50.7112 0.0133843C50.0011 0.0445821 49.2865 0.129262 48.5734 0.242168C47.1487 0.469466 45.73 0.815613 44.332 1.2405C42.9326 1.6639 41.551 2.16009 40.1872 2.70976C37.4611 3.8106 34.8108 5.11942 32.2436 6.57531C32.0817 6.66742 31.9227 6.76102 31.7608 6.85461C33.0399 6.95415 35.8299 6.05238 36.3602 5.88005C37.2486 5.59333 38.1415 5.31998 39.0418 5.06742C40.4769 4.65888 41.9253 4.29342 43.3887 3.98293C44.852 3.67392 46.3302 3.41691 47.8247 3.2431C49.3192 3.07374 50.8286 2.9742 52.3513 3.02026C53.112 3.04551 53.8756 3.10048 54.6407 3.2119M58.117 10.1571C57.8005 10.0056 57.4752 9.86594 57.1439 9.73669C56.9864 9.67429 56.8275 9.61635 56.6685 9.5599C56.5838 9.7248 56.4992 9.88971 56.413 10.0516C56.0193 10.784 55.5885 11.4912 55.1339 12.1805C55.9064 12.4702 56.6715 12.7896 57.4202 13.1506C57.5866 13.2308 57.7515 13.314 57.9164 13.3987C58.013 13.2591 58.1066 13.1179 58.1972 12.9753C58.3888 12.6767 58.5686 12.3707 58.7365 12.0632C58.8182 11.9086 58.8999 11.7527 58.9742 11.5952L59.0871 11.359L59.1896 11.1213C59.2297 11.0232 59.2698 10.9237 59.3069 10.8256C59.2178 10.7677 59.1287 10.7083 59.0366 10.6518L58.8137 10.5196L58.5849 10.3948C58.4319 10.3116 58.2745 10.2344 58.1185 10.1556M59.4436 7.36566C59.1985 6.81004 58.7855 6.33168 58.2655 5.94839C58.2002 5.89936 58.1289 5.85628 58.059 5.81023C57.9016 6.56046 57.6639 7.27949 57.389 7.97327C57.3385 8.09955 57.285 8.22583 57.2316 8.35062C57.3608 8.39519 57.4886 8.43827 57.6163 8.48581C58.3175 8.74727 59.0128 9.05034 59.6769 9.43808C59.6888 9.35489 59.6992 9.27318 59.7066 9.18999C59.7705 8.54672 59.6902 7.91979 59.4407 7.36566" fill="#88A4DD"/>
<path d="M2.81377 26.2923C2.88953 26.1794 2.96827 26.068 3.04701 25.9565C2.92964 25.8867 2.81377 25.8169 2.69789 25.7441C2.06502 25.343 1.44998 24.9018 0.879505 24.3848C0.851278 24.4635 0.823052 24.5422 0.797796 24.621C0.601696 25.2375 0.5497 25.8674 0.677462 26.4602C0.800767 27.0544 1.10532 27.6085 1.53466 28.0914C1.58963 28.1537 1.64608 28.2147 1.7055 28.2741C2.016 27.5699 2.39928 26.9162 2.81377 26.2923ZM5.71813 29.9498C6.11182 29.2174 6.54264 28.5088 6.99724 27.821C6.22472 27.5313 5.45964 27.2119 4.71089 26.8509C4.5445 26.7706 4.3796 26.6875 4.2147 26.6028C4.11962 26.7424 4.02454 26.8836 3.93392 27.0262C3.74079 27.3248 3.56251 27.6308 3.39464 27.9383C3.31293 28.0928 3.23122 28.2488 3.15694 28.4063L3.04404 28.641L2.94153 28.8787C2.90142 28.9768 2.86131 29.0763 2.82417 29.1744C2.9133 29.2323 3.00244 29.2917 3.09455 29.3482L3.31739 29.4804L3.54617 29.6052C3.69919 29.6899 3.85666 29.7656 4.01265 29.8444C4.32909 29.9959 4.65444 30.137 4.98573 30.2663C5.1432 30.3272 5.30216 30.3866 5.46112 30.4431C5.5458 30.2782 5.63048 30.1148 5.71665 29.9513M24.3729 9.97882C25.037 9.80797 25.7025 9.64307 26.3711 9.4856C25.7218 9.52125 25.0726 9.57028 24.4249 9.62227C23.6895 9.6817 22.9542 9.75598 22.2203 9.83471C19.2877 10.1645 16.3729 10.6652 13.5205 11.3768C12.0958 11.7333 10.6845 12.1448 9.30439 12.6247C9.15434 12.6767 9.00578 12.7287 8.85722 12.7822C8.94636 12.9129 9.03549 13.0436 9.12612 13.1729C9.5302 13.7537 9.95063 14.3257 10.3829 14.8902C10.8138 14.6852 11.2446 14.4832 11.6799 14.2886C13.0466 13.6795 14.4342 13.1239 15.8351 12.6113C17.2346 12.0943 18.6504 11.6278 20.0736 11.1881C21.4968 10.7469 22.9304 10.3487 24.3729 9.97882ZM26.7276 31.5305C27.047 31.4889 27.3664 31.4473 27.6858 31.4028C27.1079 31.2423 24.7592 31.1042 23.8381 31.0403C23.2736 31.0002 22.709 30.9556 22.146 30.9036C20.6619 30.7699 19.1807 30.608 17.704 30.3926C16.2273 30.1816 14.7536 29.9276 13.2903 29.6156C11.827 29.3021 10.3725 28.9367 8.93596 28.488C8.68489 28.4093 8.43382 28.3261 8.18424 28.2429C7.70885 28.9961 7.26613 29.7656 6.86502 30.5515C6.816 30.6466 6.76994 30.7432 6.7224 30.8382C6.82491 30.8665 6.92742 30.8962 7.03141 30.9244C8.4264 31.2958 9.86298 31.5573 11.3129 31.737C12.7644 31.9198 14.2277 32.0282 15.697 32.0802C18.6355 32.1842 21.5889 32.0668 24.5274 31.7801C25.2613 31.7058 25.9952 31.6241 26.7276 31.5305ZM53.005 13.1744C53.0957 13.0451 53.1848 12.9144 53.2739 12.7836C53.1254 12.7302 52.9768 12.6767 52.8268 12.6262C51.4466 12.1463 50.0353 11.7348 48.6106 11.3783C45.7582 10.6667 42.845 10.1675 39.9109 9.8362C39.177 9.75746 38.4416 9.68318 37.7063 9.62376C37.0585 9.57028 36.4093 9.52274 35.7601 9.48708C36.4271 9.64456 37.0927 9.80797 37.7568 9.9803C39.1978 10.3502 40.6329 10.7498 42.0561 11.1896C43.4793 11.6293 44.8951 12.0958 46.2946 12.6128C47.6955 13.1268 49.083 13.681 50.4498 14.2901C50.8836 14.4847 51.3159 14.6867 51.7467 14.8917C52.1791 14.3287 52.5995 13.7567 53.005 13.1744ZM55.2647 30.5515C54.8635 29.7656 54.4193 28.9961 53.9454 28.2429C53.6944 28.3276 53.4448 28.4093 53.1937 28.488C51.7571 28.9367 50.3027 29.3021 48.8394 29.6156C47.3761 29.9276 45.9038 30.1816 44.4271 30.3926C42.9504 30.608 41.4678 30.7699 39.9852 30.9036C39.4206 30.9556 38.8576 31.0002 38.2931 31.0403C37.372 31.1042 35.0232 31.2423 34.4468 31.4028C34.7662 31.4459 35.0856 31.4889 35.405 31.5305C36.1375 31.6256 36.8713 31.7058 37.6052 31.7801C40.5438 32.0668 43.4972 32.1842 46.4357 32.0802C47.905 32.0282 49.3683 31.9183 50.8197 31.737C52.2697 31.5573 53.7063 31.2958 55.1012 30.9244C55.2037 30.8962 55.3077 30.8665 55.4102 30.8382C55.3627 30.7417 55.3167 30.6466 55.2676 30.5515M59.0856 28.641L58.9727 28.4063C58.8985 28.2488 58.8167 28.0943 58.735 27.9383C58.5672 27.6293 58.3874 27.3248 58.1958 27.0262C58.1051 26.8836 58.0115 26.7439 57.915 26.6028C57.7501 26.6875 57.5852 26.7692 57.4188 26.8509C56.67 27.2119 55.905 27.5313 55.1324 27.821C55.587 28.5103 56.0179 29.2174 56.4115 29.9498C56.4992 30.1133 56.5839 30.2767 56.6671 30.4416C56.8275 30.3851 56.985 30.3257 57.1425 30.2648C57.4738 30.1355 57.7976 29.9944 58.1155 29.8429C58.273 29.7656 58.4305 29.6884 58.582 29.6037L58.8108 29.4789L59.0336 29.3467C59.1258 29.2902 59.2149 29.2308 59.304 29.1729C59.2669 29.0733 59.2268 28.9753 59.1867 28.8772L59.0842 28.6395L59.0856 28.641ZM61.3319 24.6195C61.3066 24.5407 61.2799 24.462 61.2502 24.3833C60.6812 24.9003 60.0647 25.3415 59.4318 25.7426C59.3159 25.8154 59.2 25.8852 59.0827 25.955C59.1614 26.0665 59.2387 26.1779 59.3159 26.2908C59.7304 26.9148 60.1137 27.5684 60.4227 28.2726C60.4806 28.2132 60.5386 28.1523 60.5935 28.0899C61.0229 27.607 61.3274 27.0529 61.4507 26.4587C61.58 25.8659 61.5265 25.236 61.3304 24.6195" fill="#556AC6"/>
</g>
<defs>
<clipPath id="clip0_665_1049">
<rect width="156.702" height="40" fill="white"/>
</clipPath>
</defs>
</svg>
